<svg id="visual" viewBox="0 0 900 600" width="900" height="600" xmlns="http://www.w3.org/2000/svg" xmlns:xlink="http://www.w3.org/1999/xlink" version="1.1"><rect width="900" height="600" fill="#001829"></rect><g><g transform="translate(777 544)"><path d="M0 -13.1L10.3 -8.2L12.8 2.9L5.7 11.8L-5.7 11.8L-12.8 2.9L-10.3 -8.2Z" stroke="#297EA6" fill="none" stroke-width="2"></path></g><g transform="translate(251 522)"><path d="M0 -3L2.3 -1.9L2.9 0.7L1.3 2.7L-1.3 2.7L-2.9 0.7L-2.3 -1.9Z" stroke="#297EA6" fill="none" stroke-width="2"></path></g><g transform="translate(551 559)"><path d="M0 -12L9.4 -7.5L11.7 2.7L5.2 10.8L-5.2 10.8L-11.7 2.7L-9.4 -7.5Z" stroke="#297EA6" fill="none" stroke-width="2"></path></g><g transform="translate(331 80)"><path d="M0 -11L8.6 -6.9L10.7 2.4L4.8 9.9L-4.8 9.9L-10.7 2.4L-8.6 -6.9Z" stroke="#297EA6" fill="none" stroke-width="2"></path></g><g transform="translate(188 508)"><path d="M0 -6L4.7 -3.7L5.8 1.3L2.6 5.4L-2.6 5.4L-5.8 1.3L-4.7 -3.7Z" stroke="#297EA6" fill="none" stroke-width="2"></path></g><g transform="translate(451 107)"><path d="M0 -8L6.3 -5L7.8 1.8L3.5 7.2L-3.5 7.2L-7.8 1.8L-6.3 -5Z" stroke="#297EA6" fill="none" stroke-width="2"></path></g><g transform="translate(422 462)"><path d="M0 -2L1.6 -1.2L1.9 0.4L0.9 1.8L-0.9 1.8L-1.9 0.4L-1.6 -1.2Z" stroke="#297EA6" fill="none" stroke-width="2"></path></g><g transform="translate(75 227)"><path d="M0 -1L0.8 -0.6L1 0.2L0.4 0.9L-0.4 0.9L-1 0.2L-0.8 -0.6Z" stroke="#297EA6" fill="none" stroke-width="2"></path></g><g transform="translate(468 543)"><path d="M0 -9L7 -5.6L8.8 2L3.9 8.1L-3.9 8.1L-8.8 2L-7 -5.6Z" stroke="#297EA6" fill="none" stroke-width="2"></path></g><g transform="translate(48 504)"><path d="M0 -2L1.6 -1.2L1.9 0.4L0.9 1.8L-0.9 1.8L-1.9 0.4L-1.6 -1.2Z" stroke="#297EA6" fill="none" stroke-width="2"></path></g><g transform="translate(489 16)"><path d="M0 -11L8.6 -6.9L10.7 2.4L4.8 9.9L-4.8 9.9L-10.7 2.4L-8.6 -6.9Z" stroke="#297EA6" fill="none" stroke-width="2"></path></g><g transform="translate(599 289)"><path d="M0 -7L5.5 -4.4L6.8 1.6L3 6.3L-3 6.3L-6.8 1.6L-5.5 -4.4Z" stroke="#297EA6" fill="none" stroke-width="2"></path></g><g transform="translate(126 462)"><path d="M0 -6L4.7 -3.7L5.8 1.3L2.6 5.4L-2.6 5.4L-5.8 1.3L-4.7 -3.7Z" stroke="#297EA6" fill="none" stroke-width="2"></path></g><g transform="translate(668 439)"><path d="M0 -9L7 -5.6L8.8 2L3.9 8.1L-3.9 8.1L-8.8 2L-7 -5.6Z" stroke="#297EA6" fill="none" stroke-width="2"></path></g><g transform="translate(588 314)"><path d="M0 -2L1.6 -1.2L1.9 0.4L0.9 1.8L-0.9 1.8L-1.9 0.4L-1.6 -1.2Z" stroke="#297EA6" fill="none" stroke-width="2"></path></g><g transform="translate(859 180)"><path d="M0 -4L3.1 -2.5L3.9 0.9L1.7 3.6L-1.7 3.6L-3.9 0.9L-3.1 -2.5Z" stroke="#297EA6" fill="none" stroke-width="2"></path></g><g transform="translate(668 153)"><path d="M0 -12L9.4 -7.5L11.7 2.7L5.2 10.8L-5.2 10.8L-11.7 2.7L-9.4 -7.5Z" stroke="#297EA6" fill="none" stroke-width="2"></path></g><g transform="translate(670 20)"><path d="M0 -8L6.3 -5L7.8 1.8L3.5 7.2L-3.5 7.2L-7.8 1.8L-6.3 -5Z" stroke="#297EA6" fill="none" stroke-width="2"></path></g><g transform="translate(824 502)"><path d="M0 -4L3.1 -2.5L3.9 0.9L1.7 3.6L-1.7 3.6L-3.9 0.9L-3.1 -2.5Z" stroke="#297EA6" fill="none" stroke-width="2"></path></g><g transform="translate(467 471)"><path d="M0 -1L0.8 -0.6L1 0.2L0.4 0.9L-0.4 0.9L-1 0.2L-0.8 -0.6Z" stroke="#297EA6" fill="none" stroke-width="2"></path></g><g transform="translate(539 292)"><path d="M0 -7L5.5 -4.4L6.8 1.6L3 6.3L-3 6.3L-6.8 1.6L-5.5 -4.4Z" stroke="#297EA6" fill="none" stroke-width="2"></path></g><g transform="translate(402 191)"><path d="M0 -10L7.8 -6.2L9.7 2.2L4.3 9L-4.3 9L-9.7 2.2L-7.8 -6.2Z" stroke="#297EA6" fill="none" stroke-width="2"></path></g><g transform="translate(194 180)"><path d="M0 -11L8.6 -6.9L10.7 2.4L4.8 9.9L-4.8 9.9L-10.7 2.4L-8.6 -6.9Z" stroke="#297EA6" fill="none" stroke-width="2"></path></g><g transform="translate(362 246)"><path d="M0 -7L5.5 -4.4L6.8 1.6L3 6.3L-3 6.3L-6.8 1.6L-5.5 -4.4Z" stroke="#297EA6" fill="none" stroke-width="2"></path></g><g transform="translate(426 7)"><path d="M0 -4L3.1 -2.5L3.9 0.9L1.7 3.6L-1.7 3.6L-3.9 0.9L-3.1 -2.5Z" stroke="#297EA6" fill="none" stroke-width="2"></path></g><g transform="translate(128 254)"><path d="M0 -8L6.3 -5L7.8 1.8L3.5 7.2L-3.5 7.2L-7.8 1.8L-6.3 -5Z" stroke="#297EA6" fill="none" stroke-width="2"></path></g><g transform="translate(301 43)"><path d="M0 -5L3.9 -3.1L4.9 1.1L2.2 4.5L-2.2 4.5L-4.9 1.1L-3.9 -3.1Z" stroke="#297EA6" fill="none" stroke-width="2"></path></g><g transform="translate(193 568)"><path d="M0 -7L5.5 -4.4L6.8 1.6L3 6.3L-3 6.3L-6.8 1.6L-5.5 -4.4Z" stroke="#297EA6" fill="none" stroke-width="2"></path></g><g transform="translate(521 587)"><path d="M0 -2L1.6 -1.2L1.9 0.4L0.9 1.8L-0.9 1.8L-1.9 0.4L-1.6 -1.2Z" stroke="#297EA6" fill="none" stroke-width="2"></path></g><g transform="translate(708 26)"><path d="M0 -1L0.8 -0.6L1 0.2L0.4 0.9L-0.4 0.9L-1 0.2L-0.8 -0.6Z" stroke="#297EA6" fill="none" stroke-width="2"></path></g><g transform="translate(636 19)"><path d="M0 -5L3.9 -3.1L4.9 1.1L2.2 4.5L-2.2 4.5L-4.9 1.1L-3.9 -3.1Z" stroke="#297EA6" fill="none" stroke-width="2"></path></g><g transform="translate(108 85)"><path d="M0 -8L6.3 -5L7.8 1.8L3.5 7.2L-3.5 7.2L-7.8 1.8L-6.3 -5Z" stroke="#297EA6" fill="none" stroke-width="2"></path></g><g transform="translate(83 174)"><path d="M0 -7L5.5 -4.4L6.8 1.6L3 6.3L-3 6.3L-6.8 1.6L-5.5 -4.4Z" stroke="#297EA6" fill="none" stroke-width="2"></path></g><g transform="translate(727 149)"><path d="M0 -4L3.1 -2.5L3.9 0.9L1.7 3.6L-1.7 3.6L-3.9 0.9L-3.1 -2.5Z" stroke="#297EA6" fill="none" stroke-width="2"></path></g><g transform="translate(870 567)"><path d="M0 -9L7 -5.6L8.8 2L3.9 8.1L-3.9 8.1L-8.8 2L-7 -5.6Z" stroke="#297EA6" fill="none" stroke-width="2"></path></g><g transform="translate(597 133)"><path d="M0 -9L7 -5.6L8.8 2L3.9 8.1L-3.9 8.1L-8.8 2L-7 -5.6Z" stroke="#297EA6" fill="none" stroke-width="2"></path></g><g transform="translate(390 403)"><path d="M0 -2L1.6 -1.2L1.9 0.4L0.9 1.8L-0.9 1.8L-1.9 0.4L-1.6 -1.2Z" stroke="#297EA6" fill="none" stroke-width="2"></path></g><g transform="translate(806 299)"><path d="M0 -8L6.3 -5L7.8 1.8L3.5 7.2L-3.5 7.2L-7.8 1.8L-6.3 -5Z" stroke="#297EA6" fill="none" stroke-width="2"></path></g><g transform="translate(288 582)"><path d="M0 -3L2.3 -1.9L2.9 0.7L1.3 2.7L-1.3 2.7L-2.9 0.7L-2.3 -1.9Z" stroke="#297EA6" fill="none" stroke-width="2"></path></g><g transform="translate(896 174)"><path d="M0 -12L9.4 -7.5L11.7 2.7L5.2 10.8L-5.2 10.8L-11.7 2.7L-9.4 -7.5Z" stroke="#297EA6" fill="none" stroke-width="2"></path></g><g transform="translate(648 277)"><path d="M0 -5L3.9 -3.1L4.9 1.1L2.2 4.5L-2.2 4.5L-4.9 1.1L-3.9 -3.1Z" stroke="#297EA6" fill="none" stroke-width="2"></path></g><g transform="translate(263 216)"><path d="M0 -12L9.4 -7.5L11.7 2.7L5.2 10.8L-5.2 10.8L-11.7 2.7L-9.4 -7.5Z" stroke="#297EA6" fill="none" stroke-width="2"></path></g><g transform="translate(808 396)"><path d="M0 -5L3.9 -3.1L4.9 1.1L2.2 4.5L-2.2 4.5L-4.9 1.1L-3.9 -3.1Z" stroke="#297EA6" fill="none" stroke-width="2"></path></g><g transform="translate(43 165)"><path d="M0 -11L8.6 -6.9L10.7 2.4L4.8 9.9L-4.8 9.9L-10.7 2.4L-8.6 -6.9Z" stroke="#297EA6" fill="none" stroke-width="2"></path></g><g transform="translate(214 501)"><path d="M0 -3L2.3 -1.9L2.9 0.7L1.3 2.7L-1.3 2.7L-2.9 0.7L-2.3 -1.9Z" stroke="#297EA6" fill="none" stroke-width="2"></path></g><g transform="translate(779 100)"><path d="M0 -9L7 -5.6L8.8 2L3.9 8.1L-3.9 8.1L-8.8 2L-7 -5.6Z" stroke="#297EA6" fill="none" stroke-width="2"></path></g><g transform="translate(515 377)"><path d="M0 -1L0.8 -0.6L1 0.2L0.4 0.9L-0.4 0.9L-1 0.2L-0.8 -0.6Z" stroke="#297EA6" fill="none" stroke-width="2"></path></g><g transform="translate(478 497)"><path d="M0 -4L3.1 -2.5L3.9 0.9L1.7 3.6L-1.7 3.6L-3.9 0.9L-3.1 -2.5Z" stroke="#297EA6" fill="none" stroke-width="2"></path></g><g transform="translate(289 458)"><path d="M0 -9L7 -5.6L8.8 2L3.9 8.1L-3.9 8.1L-8.8 2L-7 -5.6Z" stroke="#297EA6" fill="none" stroke-width="2"></path></g><g transform="translate(635 123)"><path d="M0 -12L9.4 -7.5L11.7 2.7L5.2 10.8L-5.2 10.8L-11.7 2.7L-9.4 -7.5Z" stroke="#297EA6" fill="none" stroke-width="2"></path></g><g transform="translate(792 210)"><path d="M0 -10L7.8 -6.2L9.7 2.2L4.3 9L-4.3 9L-9.7 2.2L-7.8 -6.2Z" stroke="#297EA6" fill="none" stroke-width="2"></path></g><g transform="translate(127 596)"><path d="M0 -1L0.8 -0.6L1 0.2L0.4 0.9L-0.4 0.9L-1 0.2L-0.8 -0.6Z" stroke="#297EA6" fill="none" stroke-width="2"></path></g><g transform="translate(409 373)"><path d="M0 -5L3.9 -3.1L4.9 1.1L2.2 4.5L-2.2 4.5L-4.9 1.1L-3.9 -3.1Z" stroke="#297EA6" fill="none" stroke-width="2"></path></g><g transform="translate(508 165)"><path d="M0 -10L7.8 -6.2L9.7 2.2L4.3 9L-4.3 9L-9.7 2.2L-7.8 -6.2Z" stroke="#297EA6" fill="none" stroke-width="2"></path></g><g transform="translate(260 85)"><path d="M0 -7L5.5 -4.4L6.8 1.6L3 6.3L-3 6.3L-6.8 1.6L-5.5 -4.4Z" stroke="#297EA6" fill="none" stroke-width="2"></path></g><g transform="translate(230 163)"><path d="M0 -7L5.5 -4.4L6.8 1.6L3 6.3L-3 6.3L-6.8 1.6L-5.5 -4.4Z" stroke="#297EA6" fill="none" stroke-width="2"></path></g><g transform="translate(51 403)"><path d="M0 -9L7 -5.6L8.8 2L3.9 8.1L-3.9 8.1L-8.8 2L-7 -5.6Z" stroke="#297EA6" fill="none" stroke-width="2"></path></g><g transform="translate(457 438)"><path d="M0 -11L8.6 -6.9L10.7 2.4L4.8 9.9L-4.8 9.9L-10.7 2.4L-8.6 -6.9Z" stroke="#297EA6" fill="none" stroke-width="2"></path></g><g transform="translate(151 136)"><path d="M0 -3L2.3 -1.9L2.9 0.7L1.3 2.7L-1.3 2.7L-2.9 0.7L-2.3 -1.9Z" stroke="#297EA6" fill="none" stroke-width="2"></path></g><g transform="translate(64 14)"><path d="M0 -5L3.9 -3.1L4.9 1.1L2.2 4.5L-2.2 4.5L-4.9 1.1L-3.9 -3.1Z" stroke="#297EA6" fill="none" stroke-width="2"></path></g><g transform="translate(58 464)"><path d="M0 -7L5.5 -4.4L6.8 1.6L3 6.3L-3 6.3L-6.8 1.6L-5.5 -4.4Z" stroke="#297EA6" fill="none" stroke-width="2"></path></g><g transform="translate(64 344)"><path d="M0 -9L7 -5.6L8.8 2L3.9 8.1L-3.9 8.1L-8.8 2L-7 -5.6Z" stroke="#297EA6" fill="none" stroke-width="2"></path></g><g transform="translate(522 484)"><path d="M0 -1L0.8 -0.6L1 0.2L0.4 0.9L-0.4 0.9L-1 0.2L-0.8 -0.6Z" stroke="#297EA6" fill="none" stroke-width="2"></path></g><g transform="translate(167 239)"><path d="M0 -4L3.1 -2.5L3.9 0.9L1.7 3.6L-1.7 3.6L-3.9 0.9L-3.1 -2.5Z" stroke="#297EA6" fill="none" stroke-width="2"></path></g><g transform="translate(334 150)"><path d="M0 -12L9.4 -7.5L11.7 2.7L5.2 10.8L-5.2 10.8L-11.7 2.7L-9.4 -7.5Z" stroke="#297EA6" fill="none" stroke-width="2"></path></g><g transform="translate(490 319)"><path d="M0 -4L3.1 -2.5L3.9 0.9L1.7 3.6L-1.7 3.6L-3.9 0.9L-3.1 -2.5Z" stroke="#297EA6" fill="none" stroke-width="2"></path></g><g transform="translate(849 394)"><path d="M0 -6L4.7 -3.7L5.8 1.3L2.6 5.4L-2.6 5.4L-5.8 1.3L-4.7 -3.7Z" stroke="#297EA6" fill="none" stroke-width="2"></path></g><g transform="translate(548 502)"><path d="M0 -12L9.4 -7.5L11.7 2.7L5.2 10.8L-5.2 10.8L-11.7 2.7L-9.4 -7.5Z" stroke="#297EA6" fill="none" stroke-width="2"></path></g><g transform="translate(402 70)"><path d="M0 -8L6.3 -5L7.8 1.8L3.5 7.2L-3.5 7.2L-7.8 1.8L-6.3 -5Z" stroke="#297EA6" fill="none" stroke-width="2"></path></g><g transform="translate(600 401)"><path d="M0 -12L9.4 -7.5L11.7 2.7L5.2 10.8L-5.2 10.8L-11.7 2.7L-9.4 -7.5Z" stroke="#297EA6" fill="none" stroke-width="2"></path></g><g transform="translate(821 128)"><path d="M0 -8L6.3 -5L7.8 1.8L3.5 7.2L-3.5 7.2L-7.8 1.8L-6.3 -5Z" stroke="#297EA6" fill="none" stroke-width="2"></path></g><g transform="translate(26 97)"><path d="M0 -2L1.6 -1.2L1.9 0.4L0.9 1.8L-0.9 1.8L-1.9 0.4L-1.6 -1.2Z" stroke="#297EA6" fill="none" stroke-width="2"></path></g><g transform="translate(115 151)"><path d="M0 -2L1.6 -1.2L1.9 0.4L0.9 1.8L-0.9 1.8L-1.9 0.4L-1.6 -1.2Z" stroke="#297EA6" fill="none" stroke-width="2"></path></g><g transform="translate(541 75)"><path d="M0 -4L3.1 -2.5L3.9 0.9L1.7 3.6L-1.7 3.6L-3.9 0.9L-3.1 -2.5Z" stroke="#297EA6" fill="none" stroke-width="2"></path></g><g transform="translate(7 248)"><path d="M0 -8L6.3 -5L7.8 1.8L3.5 7.2L-3.5 7.2L-7.8 1.8L-6.3 -5Z" stroke="#297EA6" fill="none" stroke-width="2"></path></g><g transform="translate(780 485)"><path d="M0 -6L4.7 -3.7L5.8 1.3L2.6 5.4L-2.6 5.4L-5.8 1.3L-4.7 -3.7Z" stroke="#297EA6" fill="none" stroke-width="2"></path></g><g transform="translate(293 216)"><path d="M0 -2L1.6 -1.2L1.9 0.4L0.9 1.8L-0.9 1.8L-1.9 0.4L-1.6 -1.2Z" stroke="#297EA6" fill="none" stroke-width="2"></path></g><g transform="translate(203 14)"><path d="M0 -11L8.6 -6.9L10.7 2.4L4.8 9.9L-4.8 9.9L-10.7 2.4L-8.6 -6.9Z" stroke="#297EA6" fill="none" stroke-width="2"></path></g><g transform="translate(137 365)"><path d="M0 -9L7 -5.6L8.8 2L3.9 8.1L-3.9 8.1L-8.8 2L-7 -5.6Z" stroke="#297EA6" fill="none" stroke-width="2"></path></g><g transform="translate(378 318)"><path d="M0 -11L8.6 -6.9L10.7 2.4L4.8 9.9L-4.8 9.9L-10.7 2.4L-8.6 -6.9Z" stroke="#297EA6" fill="none" stroke-width="2"></path></g><g transform="translate(740 117)"><path d="M0 -11L8.6 -6.9L10.7 2.4L4.8 9.9L-4.8 9.9L-10.7 2.4L-8.6 -6.9Z" stroke="#297EA6" fill="none" stroke-width="2"></path></g><g transform="translate(182 354)"><path d="M0 -3L2.3 -1.9L2.9 0.7L1.3 2.7L-1.3 2.7L-2.9 0.7L-2.3 -1.9Z" stroke="#297EA6" fill="none" stroke-width="2"></path></g><g transform="translate(684 364)"><path d="M0 -11L8.6 -6.9L10.7 2.4L4.8 9.9L-4.8 9.9L-10.7 2.4L-8.6 -6.9Z" stroke="#297EA6" fill="none" stroke-width="2"></path></g><g transform="translate(740 69)"><path d="M0 -4L3.1 -2.5L3.9 0.9L1.7 3.6L-1.7 3.6L-3.9 0.9L-3.1 -2.5Z" stroke="#297EA6" fill="none" stroke-width="2"></path></g><g transform="translate(60 312)"><path d="M0 -3L2.3 -1.9L2.9 0.7L1.3 2.7L-1.3 2.7L-2.9 0.7L-2.3 -1.9Z" stroke="#297EA6" fill="none" stroke-width="2"></path></g><g transform="translate(711 357)"><path d="M0 -11L8.6 -6.9L10.7 2.4L4.8 9.9L-4.8 9.9L-10.7 2.4L-8.6 -6.9Z" stroke="#297EA6" fill="none" stroke-width="2"></path></g><g transform="translate(635 68)"><path d="M0 -11L8.6 -6.9L10.7 2.4L4.8 9.9L-4.8 9.9L-10.7 2.4L-8.6 -6.9Z" stroke="#297EA6" fill="none" stroke-width="2"></path></g><g transform="translate(238 352)"><path d="M0 -8L6.3 -5L7.8 1.8L3.5 7.2L-3.5 7.2L-7.8 1.8L-6.3 -5Z" stroke="#297EA6" fill="none" stroke-width="2"></path></g><g transform="translate(10 120)"><path d="M0 -5L3.9 -3.1L4.9 1.1L2.2 4.5L-2.2 4.5L-4.9 1.1L-3.9 -3.1Z" stroke="#297EA6" fill="none" stroke-width="2"></path></g><g transform="translate(304 85)"><path d="M0 -2L1.6 -1.2L1.9 0.4L0.9 1.8L-0.9 1.8L-1.9 0.4L-1.6 -1.2Z" stroke="#297EA6" fill="none" stroke-width="2"></path></g><g transform="translate(305 349)"><path d="M0 -5L3.9 -3.1L4.9 1.1L2.2 4.5L-2.2 4.5L-4.9 1.1L-3.9 -3.1Z" stroke="#297EA6" fill="none" stroke-width="2"></path></g><g transform="translate(541 460)"><path d="M0 -11L8.6 -6.9L10.7 2.4L4.8 9.9L-4.8 9.9L-10.7 2.4L-8.6 -6.9Z" stroke="#297EA6" fill="none" stroke-width="2"></path></g><g transform="translate(594 105)"><path d="M0 -8L6.3 -5L7.8 1.8L3.5 7.2L-3.5 7.2L-7.8 1.8L-6.3 -5Z" stroke="#297EA6" fill="none" stroke-width="2"></path></g><g transform="translate(868 283)"><path d="M0 -9L7 -5.6L8.8 2L3.9 8.1L-3.9 8.1L-8.8 2L-7 -5.6Z" stroke="#297EA6" fill="none" stroke-width="2"></path></g><g transform="translate(254 592)"><path d="M0 -9L7 -5.6L8.8 2L3.9 8.1L-3.9 8.1L-8.8 2L-7 -5.6Z" stroke="#297EA6" fill="none" stroke-width="2"></path></g><g transform="translate(490 207)"><path d="M0 -4L3.1 -2.5L3.9 0.9L1.7 3.6L-1.7 3.6L-3.9 0.9L-3.1 -2.5Z" stroke="#297EA6" fill="none" stroke-width="2"></path></g><g transform="translate(696 395)"><path d="M0 -1L0.8 -0.6L1 0.2L0.4 0.9L-0.4 0.9L-1 0.2L-0.8 -0.6Z" stroke="#297EA6" fill="none" stroke-width="2"></path></g><g transform="translate(750 556)"><path d="M0 -6L4.7 -3.7L5.8 1.3L2.6 5.4L-2.6 5.4L-5.8 1.3L-4.7 -3.7Z" stroke="#297EA6" fill="none" stroke-width="2"></path></g><g transform="translate(776 1)"><path d="M0 -11L8.6 -6.9L10.7 2.4L4.8 9.9L-4.8 9.9L-10.7 2.4L-8.6 -6.9Z" stroke="#297EA6" fill="none" stroke-width="2"></path></g><g transform="translate(211 424)"><path d="M0 -5L3.9 -3.1L4.9 1.1L2.2 4.5L-2.2 4.5L-4.9 1.1L-3.9 -3.1Z" stroke="#297EA6" fill="none" stroke-width="2"></path></g><g transform="translate(78 75)"><path d="M0 -3L2.3 -1.9L2.9 0.7L1.3 2.7L-1.3 2.7L-2.9 0.7L-2.3 -1.9Z" stroke="#297EA6" fill="none" stroke-width="2"></path></g><g transform="translate(524 246)"><path d="M0 -5L3.9 -3.1L4.9 1.1L2.2 4.5L-2.2 4.5L-4.9 1.1L-3.9 -3.1Z" stroke="#297EA6" fill="none" stroke-width="2"></path></g><g transform="translate(476 118)"><path d="M0 -4L3.1 -2.5L3.9 0.9L1.7 3.6L-1.7 3.6L-3.9 0.9L-3.1 -2.5Z" stroke="#297EA6" fill="none" stroke-width="2"></path></g><g transform="translate(493 280)"><path d="M0 -2L1.6 -1.2L1.9 0.4L0.9 1.8L-0.9 1.8L-1.9 0.4L-1.6 -1.2Z" stroke="#297EA6" fill="none" stroke-width="2"></path></g><g transform="translate(6 359)"><path d="M0 -8L6.3 -5L7.8 1.8L3.5 7.2L-3.5 7.2L-7.8 1.8L-6.3 -5Z" stroke="#297EA6" fill="none" stroke-width="2"></path></g><g transform="translate(326 218)"><path d="M0 -7L5.5 -4.4L6.8 1.6L3 6.3L-3 6.3L-6.8 1.6L-5.5 -4.4Z" stroke="#297EA6" fill="none" stroke-width="2"></path></g><g transform="translate(341 466)"><path d="M0 -6L4.7 -3.7L5.8 1.3L2.6 5.4L-2.6 5.4L-5.8 1.3L-4.7 -3.7Z" stroke="#297EA6" fill="none" stroke-width="2"></path></g><g transform="translate(716 331)"><path d="M0 -5L3.9 -3.1L4.9 1.1L2.2 4.5L-2.2 4.5L-4.9 1.1L-3.9 -3.1Z" stroke="#297EA6" fill="none" stroke-width="2"></path></g><g transform="translate(365 156)"><path d="M0 -1L0.8 -0.6L1 0.2L0.4 0.9L-0.4 0.9L-1 0.2L-0.8 -0.6Z" stroke="#297EA6" fill="none" stroke-width="2"></path></g><g transform="translate(250 51)"><path d="M0 -4L3.1 -2.5L3.9 0.9L1.7 3.6L-1.7 3.6L-3.9 0.9L-3.1 -2.5Z" stroke="#297EA6" fill="none" stroke-width="2"></path></g><g transform="translate(242 19)"><path d="M0 -9L7 -5.6L8.8 2L3.9 8.1L-3.9 8.1L-8.8 2L-7 -5.6Z" stroke="#297EA6" fill="none" stroke-width="2"></path></g><g transform="translate(674 241)"><path d="M0 -3L2.3 -1.9L2.9 0.7L1.3 2.7L-1.3 2.7L-2.9 0.7L-2.3 -1.9Z" stroke="#297EA6" fill="none" stroke-width="2"></path></g><g transform="translate(136 329)"><path d="M0 -9L7 -5.6L8.8 2L3.9 8.1L-3.9 8.1L-8.8 2L-7 -5.6Z" stroke="#297EA6" fill="none" stroke-width="2"></path></g><g transform="translate(350 348)"><path d="M0 -3L2.3 -1.9L2.9 0.7L1.3 2.7L-1.3 2.7L-2.9 0.7L-2.3 -1.9Z" stroke="#297EA6" fill="none" stroke-width="2"></path></g><g transform="translate(685 280)"><path d="M0 -1L0.8 -0.6L1 0.2L0.4 0.9L-0.4 0.9L-1 0.2L-0.8 -0.6Z" stroke="#297EA6" fill="none" stroke-width="2"></path></g><g transform="translate(718 229)"><path d="M0 -2L1.6 -1.2L1.9 0.4L0.9 1.8L-0.9 1.8L-1.9 0.4L-1.6 -1.2Z" stroke="#297EA6" fill="none" stroke-width="2"></path></g><g transform="translate(94 12)"><path d="M0 -9L7 -5.6L8.8 2L3.9 8.1L-3.9 8.1L-8.8 2L-7 -5.6Z" stroke="#297EA6" fill="none" stroke-width="2"></path></g><g transform="translate(527 211)"><path d="M0 -4L3.1 -2.5L3.9 0.9L1.7 3.6L-1.7 3.6L-3.9 0.9L-3.1 -2.5Z" stroke="#297EA6" fill="none" stroke-width="2"></path></g><g transform="translate(636 479)"><path d="M0 -3L2.3 -1.9L2.9 0.7L1.3 2.7L-1.3 2.7L-2.9 0.7L-2.3 -1.9Z" stroke="#297EA6" fill="none" stroke-width="2"></path></g><g transform="translate(50 116)"><path d="M0 -2L1.6 -1.2L1.9 0.4L0.9 1.8L-0.9 1.8L-1.9 0.4L-1.6 -1.2Z" stroke="#297EA6" fill="none" stroke-width="2"></path></g><g transform="translate(789 251)"><path d="M0 -10L7.8 -6.2L9.7 2.2L4.3 9L-4.3 9L-9.7 2.2L-7.8 -6.2Z" stroke="#297EA6" fill="none" stroke-width="2"></path></g><g transform="translate(738 356)"><path d="M0 -8L6.3 -5L7.8 1.8L3.5 7.2L-3.5 7.2L-7.8 1.8L-6.3 -5Z" stroke="#297EA6" fill="none" stroke-width="2"></path></g><g transform="translate(844 80)"><path d="M0 -4L3.1 -2.5L3.9 0.9L1.7 3.6L-1.7 3.6L-3.9 0.9L-3.1 -2.5Z" stroke="#297EA6" fill="none" stroke-width="2"></path></g><g transform="translate(511 40)"><path d="M0 -3L2.3 -1.9L2.9 0.7L1.3 2.7L-1.3 2.7L-2.9 0.7L-2.3 -1.9Z" stroke="#297EA6" fill="none" stroke-width="2"></path></g><g transform="translate(736 463)"><path d="M0 -5L3.9 -3.1L4.9 1.1L2.2 4.5L-2.2 4.5L-4.9 1.1L-3.9 -3.1Z" stroke="#297EA6" fill="none" stroke-width="2"></path></g><g transform="translate(463 272)"><path d="M0 -1L0.8 -0.6L1 0.2L0.4 0.9L-0.4 0.9L-1 0.2L-0.8 -0.6Z" stroke="#297EA6" fill="none" stroke-width="2"></path></g><g transform="translate(148 66)"><path d="M0 -8L6.3 -5L7.8 1.8L3.5 7.2L-3.5 7.2L-7.8 1.8L-6.3 -5Z" stroke="#297EA6" fill="none" stroke-width="2"></path></g><g transform="translate(363 114)"><path d="M0 -3L2.3 -1.9L2.9 0.7L1.3 2.7L-1.3 2.7L-2.9 0.7L-2.3 -1.9Z" stroke="#297EA6" fill="none" stroke-width="2"></path></g><g transform="translate(294 170)"><path d="M0 -10L7.8 -6.2L9.7 2.2L4.3 9L-4.3 9L-9.7 2.2L-7.8 -6.2Z" stroke="#297EA6" fill="none" stroke-width="2"></path></g><g transform="translate(231 196)"><path d="M0 -10L7.8 -6.2L9.7 2.2L4.3 9L-4.3 9L-9.7 2.2L-7.8 -6.2Z" stroke="#297EA6" fill="none" stroke-width="2"></path></g><g transform="translate(539 170)"><path d="M0 -6L4.7 -3.7L5.8 1.3L2.6 5.4L-2.6 5.4L-5.8 1.3L-4.7 -3.7Z" stroke="#297EA6" fill="none" stroke-width="2"></path></g><g transform="translate(735 263)"><path d="M0 -10L7.8 -6.2L9.7 2.2L4.3 9L-4.3 9L-9.7 2.2L-7.8 -6.2Z" stroke="#297EA6" fill="none" stroke-width="2"></path></g><g transform="translate(400 248)"><path d="M0 -8L6.3 -5L7.8 1.8L3.5 7.2L-3.5 7.2L-7.8 1.8L-6.3 -5Z" stroke="#297EA6" fill="none" stroke-width="2"></path></g><g transform="translate(807 9)"><path d="M0 -4L3.1 -2.5L3.9 0.9L1.7 3.6L-1.7 3.6L-3.9 0.9L-3.1 -2.5Z" stroke="#297EA6" fill="none" stroke-width="2"></path></g><g transform="translate(298 140)"><path d="M0 -11L8.6 -6.9L10.7 2.4L4.8 9.9L-4.8 9.9L-10.7 2.4L-8.6 -6.9Z" stroke="#297EA6" fill="none" stroke-width="2"></path></g><g transform="translate(448 388)"><path d="M0 -7L5.5 -4.4L6.8 1.6L3 6.3L-3 6.3L-6.8 1.6L-5.5 -4.4Z" stroke="#297EA6" fill="none" stroke-width="2"></path></g><g transform="translate(486 50)"><path d="M0 -11L8.6 -6.9L10.7 2.4L4.8 9.9L-4.8 9.9L-10.7 2.4L-8.6 -6.9Z" stroke="#297EA6" fill="none" stroke-width="2"></path></g><g transform="translate(576 369)"><path d="M0 -10L7.8 -6.2L9.7 2.2L4.3 9L-4.3 9L-9.7 2.2L-7.8 -6.2Z" stroke="#297EA6" fill="none" stroke-width="2"></path></g><g transform="translate(204 299)"><path d="M0 -2L1.6 -1.2L1.9 0.4L0.9 1.8L-0.9 1.8L-1.9 0.4L-1.6 -1.2Z" stroke="#297EA6" fill="none" stroke-width="2"></path></g><g transform="translate(252 264)"><path d="M0 -12L9.4 -7.5L11.7 2.7L5.2 10.8L-5.2 10.8L-11.7 2.7L-9.4 -7.5Z" stroke="#297EA6" fill="none" stroke-width="2"></path></g><g transform="translate(241 474)"><path d="M0 -6L4.7 -3.7L5.8 1.3L2.6 5.4L-2.6 5.4L-5.8 1.3L-4.7 -3.7Z" stroke="#297EA6" fill="none" stroke-width="2"></path></g><g transform="translate(596 23)"><path d="M0 -1L0.8 -0.6L1 0.2L0.4 0.9L-0.4 0.9L-1 0.2L-0.8 -0.6Z" stroke="#297EA6" fill="none" stroke-width="2"></path></g><g transform="translate(826 569)"><path d="M0 -2L1.6 -1.2L1.9 0.4L0.9 1.8L-0.9 1.8L-1.9 0.4L-1.6 -1.2Z" stroke="#297EA6" fill="none" stroke-width="2"></path></g><g transform="translate(123 219)"><path d="M0 -12L9.4 -7.5L11.7 2.7L5.2 10.8L-5.2 10.8L-11.7 2.7L-9.4 -7.5Z" stroke="#297EA6" fill="none" stroke-width="2"></path></g><g transform="translate(534 352)"><path d="M0 -11L8.6 -6.9L10.7 2.4L4.8 9.9L-4.8 9.9L-10.7 2.4L-8.6 -6.9Z" stroke="#297EA6" fill="none" stroke-width="2"></path></g><g transform="translate(106 269)"><path d="M0 -3L2.3 -1.9L2.9 0.7L1.3 2.7L-1.3 2.7L-2.9 0.7L-2.3 -1.9Z" stroke="#297EA6" fill="none" stroke-width="2"></path></g><g transform="translate(266 373)"><path d="M0 -12L9.4 -7.5L11.7 2.7L5.2 10.8L-5.2 10.8L-11.7 2.7L-9.4 -7.5Z" stroke="#297EA6" fill="none" stroke-width="2"></path></g><g transform="translate(881 421)"><path d="M0 -10L7.8 -6.2L9.7 2.2L4.3 9L-4.3 9L-9.7 2.2L-7.8 -6.2Z" stroke="#297EA6" fill="none" stroke-width="2"></path></g><g transform="translate(794 573)"><path d="M0 -1L0.8 -0.6L1 0.2L0.4 0.9L-0.4 0.9L-1 0.2L-0.8 -0.6Z" stroke="#297EA6" fill="none" stroke-width="2"></path></g><g transform="translate(628 450)"><path d="M0 -4L3.1 -2.5L3.9 0.9L1.7 3.6L-1.7 3.6L-3.9 0.9L-3.1 -2.5Z" stroke="#297EA6" fill="none" stroke-width="2"></path></g><g transform="translate(120 40)"><path d="M0 -10L7.8 -6.2L9.7 2.2L4.3 9L-4.3 9L-9.7 2.2L-7.8 -6.2Z" stroke="#297EA6" fill="none" stroke-width="2"></path></g><g transform="translate(272 416)"><path d="M0 -5L3.9 -3.1L4.9 1.1L2.2 4.5L-2.2 4.5L-4.9 1.1L-3.9 -3.1Z" stroke="#297EA6" fill="none" stroke-width="2"></path></g><g transform="translate(859 464)"><path d="M0 -5L3.9 -3.1L4.9 1.1L2.2 4.5L-2.2 4.5L-4.9 1.1L-3.9 -3.1Z" stroke="#297EA6" fill="none" stroke-width="2"></path></g><g transform="translate(496 240)"><path d="M0 -3L2.3 -1.9L2.9 0.7L1.3 2.7L-1.3 2.7L-2.9 0.7L-2.3 -1.9Z" stroke="#297EA6" fill="none" stroke-width="2"></path></g><g transform="translate(886 34)"><path d="M0 -4L3.1 -2.5L3.9 0.9L1.7 3.6L-1.7 3.6L-3.9 0.9L-3.1 -2.5Z" stroke="#297EA6" fill="none" stroke-width="2"></path></g><g transform="translate(456 569)"><path d="M0 -1L0.8 -0.6L1 0.2L0.4 0.9L-0.4 0.9L-1 0.2L-0.8 -0.6Z" stroke="#297EA6" fill="none" stroke-width="2"></path></g><g transform="translate(668 329)"><path d="M0 -8L6.3 -5L7.8 1.8L3.5 7.2L-3.5 7.2L-7.8 1.8L-6.3 -5Z" stroke="#297EA6" fill="none" stroke-width="2"></path></g><g transform="translate(353 23)"><path d="M0 -9L7 -5.6L8.8 2L3.9 8.1L-3.9 8.1L-8.8 2L-7 -5.6Z" stroke="#297EA6" fill="none" stroke-width="2"></path></g><g transform="translate(112 543)"><path d="M0 -8L6.3 -5L7.8 1.8L3.5 7.2L-3.5 7.2L-7.8 1.8L-6.3 -5Z" stroke="#297EA6" fill="none" stroke-width="2"></path></g><g transform="translate(485 577)"><path d="M0 -8L6.3 -5L7.8 1.8L3.5 7.2L-3.5 7.2L-7.8 1.8L-6.3 -5Z" stroke="#297EA6" fill="none" stroke-width="2"></path></g><g transform="translate(48 262)"><path d="M0 -6L4.7 -3.7L5.8 1.3L2.6 5.4L-2.6 5.4L-5.8 1.3L-4.7 -3.7Z" stroke="#297EA6" fill="none" stroke-width="2"></path></g><g transform="translate(868 342)"><path d="M0 -9L7 -5.6L8.8 2L3.9 8.1L-3.9 8.1L-8.8 2L-7 -5.6Z" stroke="#297EA6" fill="none" stroke-width="2"></path></g><g transform="translate(162 569)"><path d="M0 -6L4.7 -3.7L5.8 1.3L2.6 5.4L-2.6 5.4L-5.8 1.3L-4.7 -3.7Z" stroke="#297EA6" fill="none" stroke-width="2"></path></g><g transform="translate(604 544)"><path d="M0 -10L7.8 -6.2L9.7 2.2L4.3 9L-4.3 9L-9.7 2.2L-7.8 -6.2Z" stroke="#297EA6" fill="none" stroke-width="2"></path></g><g transform="translate(158 411)"><path d="M0 -7L5.5 -4.4L6.8 1.6L3 6.3L-3 6.3L-6.8 1.6L-5.5 -4.4Z" stroke="#297EA6" fill="none" stroke-width="2"></path></g><g transform="translate(598 503)"><path d="M0 -8L6.3 -5L7.8 1.8L3.5 7.2L-3.5 7.2L-7.8 1.8L-6.3 -5Z" stroke="#297EA6" fill="none" stroke-width="2"></path></g><g transform="translate(530 408)"><path d="M0 -8L6.3 -5L7.8 1.8L3.5 7.2L-3.5 7.2L-7.8 1.8L-6.3 -5Z" stroke="#297EA6" fill="none" stroke-width="2"></path></g><g transform="translate(831 196)"><path d="M0 -10L7.8 -6.2L9.7 2.2L4.3 9L-4.3 9L-9.7 2.2L-7.8 -6.2Z" stroke="#297EA6" fill="none" stroke-width="2"></path></g><g transform="translate(660 202)"><path d="M0 -1L0.8 -0.6L1 0.2L0.4 0.9L-0.4 0.9L-1 0.2L-0.8 -0.6Z" stroke="#297EA6" fill="none" stroke-width="2"></path></g><g transform="translate(594 57)"><path d="M0 -10L7.8 -6.2L9.7 2.2L4.3 9L-4.3 9L-9.7 2.2L-7.8 -6.2Z" stroke="#297EA6" fill="none" stroke-width="2"></path></g><g transform="translate(5 403)"><path d="M0 -3L2.3 -1.9L2.9 0.7L1.3 2.7L-1.3 2.7L-2.9 0.7L-2.3 -1.9Z" stroke="#297EA6" fill="none" stroke-width="2"></path></g><g transform="translate(196 119)"><path d="M0 -10L7.8 -6.2L9.7 2.2L4.3 9L-4.3 9L-9.7 2.2L-7.8 -6.2Z" stroke="#297EA6" fill="none" stroke-width="2"></path></g><g transform="translate(888 217)"><path d="M0 -11L8.6 -6.9L10.7 2.4L4.8 9.9L-4.8 9.9L-10.7 2.4L-8.6 -6.9Z" stroke="#297EA6" fill="none" stroke-width="2"></path></g><g transform="translate(212 243)"><path d="M0 -11L8.6 -6.9L10.7 2.4L4.8 9.9L-4.8 9.9L-10.7 2.4L-8.6 -6.9Z" stroke="#297EA6" fill="none" stroke-width="2"></path></g><g transform="translate(63 595)"><path d="M0 -10L7.8 -6.2L9.7 2.2L4.3 9L-4.3 9L-9.7 2.2L-7.8 -6.2Z" stroke="#297EA6" fill="none" stroke-width="2"></path></g><g transform="translate(471 182)"><path d="M0 -10L7.8 -6.2L9.7 2.2L4.3 9L-4.3 9L-9.7 2.2L-7.8 -6.2Z" stroke="#297EA6" fill="none" stroke-width="2"></path></g><g transform="translate(333 307)"><path d="M0 -10L7.8 -6.2L9.7 2.2L4.3 9L-4.3 9L-9.7 2.2L-7.8 -6.2Z" stroke="#297EA6" fill="none" stroke-width="2"></path></g><g transform="translate(819 70)"><path d="M0 -4L3.1 -2.5L3.9 0.9L1.7 3.6L-1.7 3.6L-3.9 0.9L-3.1 -2.5Z" stroke="#297EA6" fill="none" stroke-width="2"></path></g><g transform="translate(884 119)"><path d="M0 -12L9.4 -7.5L11.7 2.7L5.2 10.8L-5.2 10.8L-11.7 2.7L-9.4 -7.5Z" stroke="#297EA6" fill="none" stroke-width="2"></path></g><g transform="translate(817 443)"><path d="M0 -8L6.3 -5L7.8 1.8L3.5 7.2L-3.5 7.2L-7.8 1.8L-6.3 -5Z" stroke="#297EA6" fill="none" stroke-width="2"></path></g><g transform="translate(739 193)"><path d="M0 -10L7.8 -6.2L9.7 2.2L4.3 9L-4.3 9L-9.7 2.2L-7.8 -6.2Z" stroke="#297EA6" fill="none" stroke-width="2"></path></g><g transform="translate(361 565)"><path d="M0 -2L1.6 -1.2L1.9 0.4L0.9 1.8L-0.9 1.8L-1.9 0.4L-1.6 -1.2Z" stroke="#297EA6" fill="none" stroke-width="2"></path></g><g transform="translate(420 291)"><path d="M0 -12L9.4 -7.5L11.7 2.7L5.2 10.8L-5.2 10.8L-11.7 2.7L-9.4 -7.5Z" stroke="#297EA6" fill="none" stroke-width="2"></path></g><g transform="translate(682 599)"><path d="M0 -10L7.8 -6.2L9.7 2.2L4.3 9L-4.3 9L-9.7 2.2L-7.8 -6.2Z" stroke="#297EA6" fill="none" stroke-width="2"></path></g><g transform="translate(85 517)"><path d="M0 -11L8.6 -6.9L10.7 2.4L4.8 9.9L-4.8 9.9L-10.7 2.4L-8.6 -6.9Z" stroke="#297EA6" fill="none" stroke-width="2"></path></g><g transform="translate(773 278)"><path d="M0 -8L6.3 -5L7.8 1.8L3.5 7.2L-3.5 7.2L-7.8 1.8L-6.3 -5Z" stroke="#297EA6" fill="none" stroke-width="2"></path></g><g transform="translate(489 417)"><path d="M0 -6L4.7 -3.7L5.8 1.3L2.6 5.4L-2.6 5.4L-5.8 1.3L-4.7 -3.7Z" stroke="#297EA6" fill="none" stroke-width="2"></path></g><g transform="translate(326 436)"><path d="M0 -10L7.8 -6.2L9.7 2.2L4.3 9L-4.3 9L-9.7 2.2L-7.8 -6.2Z" stroke="#297EA6" fill="none" stroke-width="2"></path></g><g transform="translate(435 192)"><path d="M0 -11L8.6 -6.9L10.7 2.4L4.8 9.9L-4.8 9.9L-10.7 2.4L-8.6 -6.9Z" stroke="#297EA6" fill="none" stroke-width="2"></path></g><g transform="translate(344 587)"><path d="M0 -7L5.5 -4.4L6.8 1.6L3 6.3L-3 6.3L-6.8 1.6L-5.5 -4.4Z" stroke="#297EA6" fill="none" stroke-width="2"></path></g><g transform="translate(332 389)"><path d="M0 -11L8.6 -6.9L10.7 2.4L4.8 9.9L-4.8 9.9L-10.7 2.4L-8.6 -6.9Z" stroke="#297EA6" fill="none" stroke-width="2"></path></g><g transform="translate(283 246)"><path d="M0 -2L1.6 -1.2L1.9 0.4L0.9 1.8L-0.9 1.8L-1.9 0.4L-1.6 -1.2Z" stroke="#297EA6" fill="none" stroke-width="2"></path></g><g transform="translate(60 195)"><path d="M0 -2L1.6 -1.2L1.9 0.4L0.9 1.8L-0.9 1.8L-1.9 0.4L-1.6 -1.2Z" stroke="#297EA6" fill="none" stroke-width="2"></path></g><g transform="translate(15 13)"><path d="M0 -9L7 -5.6L8.8 2L3.9 8.1L-3.9 8.1L-8.8 2L-7 -5.6Z" stroke="#297EA6" fill="none" stroke-width="2"></path></g><g transform="translate(15 316)"><path d="M0 -3L2.3 -1.9L2.9 0.7L1.3 2.7L-1.3 2.7L-2.9 0.7L-2.3 -1.9Z" stroke="#297EA6" fill="none" stroke-width="2"></path></g><g transform="translate(766 77)"><path d="M0 -3L2.3 -1.9L2.9 0.7L1.3 2.7L-1.3 2.7L-2.9 0.7L-2.3 -1.9Z" stroke="#297EA6" fill="none" stroke-width="2"></path></g><g transform="translate(141 303)"><path d="M0 -10L7.8 -6.2L9.7 2.2L4.3 9L-4.3 9L-9.7 2.2L-7.8 -6.2Z" stroke="#297EA6" fill="none" stroke-width="2"></path></g><g transform="translate(508 443)"><path d="M0 -4L3.1 -2.5L3.9 0.9L1.7 3.6L-1.7 3.6L-3.9 0.9L-3.1 -2.5Z" stroke="#297EA6" fill="none" stroke-width="2"></path></g><g transform="translate(249 290)"><path d="M0 -7L5.5 -4.4L6.8 1.6L3 6.3L-3 6.3L-6.8 1.6L-5.5 -4.4Z" stroke="#297EA6" fill="none" stroke-width="2"></path></g><g transform="translate(652 357)"><path d="M0 -2L1.6 -1.2L1.9 0.4L0.9 1.8L-0.9 1.8L-1.9 0.4L-1.6 -1.2Z" stroke="#297EA6" fill="none" stroke-width="2"></path></g><g transform="translate(354 434)"><path d="M0 -10L7.8 -6.2L9.7 2.2L4.3 9L-4.3 9L-9.7 2.2L-7.8 -6.2Z" stroke="#297EA6" fill="none" stroke-width="2"></path></g><g transform="translate(91 572)"><path d="M0 -11L8.6 -6.9L10.7 2.4L4.8 9.9L-4.8 9.9L-10.7 2.4L-8.6 -6.9Z" stroke="#297EA6" fill="none" stroke-width="2"></path></g><g transform="translate(622 367)"><path d="M0 -3L2.3 -1.9L2.9 0.7L1.3 2.7L-1.3 2.7L-2.9 0.7L-2.3 -1.9Z" stroke="#297EA6" fill="none" stroke-width="2"></path></g><g transform="translate(407 147)"><path d="M0 -9L7 -5.6L8.8 2L3.9 8.1L-3.9 8.1L-8.8 2L-7 -5.6Z" stroke="#297EA6" fill="none" stroke-width="2"></path></g><g transform="translate(302 375)"><path d="M0 -9L7 -5.6L8.8 2L3.9 8.1L-3.9 8.1L-8.8 2L-7 -5.6Z" stroke="#297EA6" fill="none" stroke-width="2"></path></g><g transform="translate(235 99)"><path d="M0 -12L9.4 -7.5L11.7 2.7L5.2 10.8L-5.2 10.8L-11.7 2.7L-9.4 -7.5Z" stroke="#297EA6" fill="none" stroke-width="2"></path></g><g transform="translate(897 290)"><path d="M0 -8L6.3 -5L7.8 1.8L3.5 7.2L-3.5 7.2L-7.8 1.8L-6.3 -5Z" stroke="#297EA6" fill="none" stroke-width="2"></path></g><g transform="translate(431 128)"><path d="M0 -10L7.8 -6.2L9.7 2.2L4.3 9L-4.3 9L-9.7 2.2L-7.8 -6.2Z" stroke="#297EA6" fill="none" stroke-width="2"></path></g><g transform="translate(163 497)"><path d="M0 -3L2.3 -1.9L2.9 0.7L1.3 2.7L-1.3 2.7L-2.9 0.7L-2.3 -1.9Z" stroke="#297EA6" fill="none" stroke-width="2"></path></g><g transform="translate(858 39)"><path d="M0 -1L0.8 -0.6L1 0.2L0.4 0.9L-0.4 0.9L-1 0.2L-0.8 -0.6Z" stroke="#297EA6" fill="none" stroke-width="2"></path></g><g transform="translate(396 18)"><path d="M0 -3L2.3 -1.9L2.9 0.7L1.3 2.7L-1.3 2.7L-2.9 0.7L-2.3 -1.9Z" stroke="#297EA6" fill="none" stroke-width="2"></path></g><g transform="translate(768 321)"><path d="M0 -12L9.4 -7.5L11.7 2.7L5.2 10.8L-5.2 10.8L-11.7 2.7L-9.4 -7.5Z" stroke="#297EA6" fill="none" stroke-width="2"></path></g><g transform="translate(230 311)"><path d="M0 -5L3.9 -3.1L4.9 1.1L2.2 4.5L-2.2 4.5L-4.9 1.1L-3.9 -3.1Z" stroke="#297EA6" fill="none" stroke-width="2"></path></g><g transform="translate(427 91)"><path d="M0 -3L2.3 -1.9L2.9 0.7L1.3 2.7L-1.3 2.7L-2.9 0.7L-2.3 -1.9Z" stroke="#297EA6" fill="none" stroke-width="2"></path></g><g transform="translate(835 357)"><path d="M0 -10L7.8 -6.2L9.7 2.2L4.3 9L-4.3 9L-9.7 2.2L-7.8 -6.2Z" stroke="#297EA6" fill="none" stroke-width="2"></path></g><g transform="translate(593 581)"><path d="M0 -4L3.1 -2.5L3.9 0.9L1.7 3.6L-1.7 3.6L-3.9 0.9L-3.1 -2.5Z" stroke="#297EA6" fill="none" stroke-width="2"></path></g><g transform="translate(125 119)"><path d="M0 -5L3.9 -3.1L4.9 1.1L2.2 4.5L-2.2 4.5L-4.9 1.1L-3.9 -3.1Z" stroke="#297EA6" fill="none" stroke-width="2"></path></g><g transform="translate(604 178)"><path d="M0 -12L9.4 -7.5L11.7 2.7L5.2 10.8L-5.2 10.8L-11.7 2.7L-9.4 -7.5Z" stroke="#297EA6" fill="none" stroke-width="2"></path></g><g transform="translate(600 255)"><path d="M0 -1L0.8 -0.6L1 0.2L0.4 0.9L-0.4 0.9L-1 0.2L-0.8 -0.6Z" stroke="#297EA6" fill="none" stroke-width="2"></path></g><g transform="translate(571 40)"><path d="M0 -5L3.9 -3.1L4.9 1.1L2.2 4.5L-2.2 4.5L-4.9 1.1L-3.9 -3.1Z" stroke="#297EA6" fill="none" stroke-width="2"></path></g><g transform="translate(328 275)"><path d="M0 -2L1.6 -1.2L1.9 0.4L0.9 1.8L-0.9 1.8L-1.9 0.4L-1.6 -1.2Z" stroke="#297EA6" fill="none" stroke-width="2"></path></g><g transform="translate(759 151)"><path d="M0 -2L1.6 -1.2L1.9 0.4L0.9 1.8L-0.9 1.8L-1.9 0.4L-1.6 -1.2Z" stroke="#297EA6" fill="none" stroke-width="2"></path></g><g transform="translate(886 510)"><path d="M0 -12L9.4 -7.5L11.7 2.7L5.2 10.8L-5.2 10.8L-11.7 2.7L-9.4 -7.5Z" stroke="#297EA6" fill="none" stroke-width="2"></path></g><g transform="translate(559 8)"><path d="M0 -9L7 -5.6L8.8 2L3.9 8.1L-3.9 8.1L-8.8 2L-7 -5.6Z" stroke="#297EA6" fill="none" stroke-width="2"></path></g><g transform="translate(106 198)"><path d="M0 -6L4.7 -3.7L5.8 1.3L2.6 5.4L-2.6 5.4L-5.8 1.3L-4.7 -3.7Z" stroke="#297EA6" fill="none" stroke-width="2"></path></g><g transform="translate(160 285)"><path d="M0 -11L8.6 -6.9L10.7 2.4L4.8 9.9L-4.8 9.9L-10.7 2.4L-8.6 -6.9Z" stroke="#297EA6" fill="none" stroke-width="2"></path></g><g transform="translate(653 551)"><path d="M0 -11L8.6 -6.9L10.7 2.4L4.8 9.9L-4.8 9.9L-10.7 2.4L-8.6 -6.9Z" stroke="#297EA6" fill="none" stroke-width="2"></path></g><g transform="translate(8 44)"><path d="M0 -5L3.9 -3.1L4.9 1.1L2.2 4.5L-2.2 4.5L-4.9 1.1L-3.9 -3.1Z" stroke="#297EA6" fill="none" stroke-width="2"></path></g><g transform="translate(26 220)"><path d="M0 -9L7 -5.6L8.8 2L3.9 8.1L-3.9 8.1L-8.8 2L-7 -5.6Z" stroke="#297EA6" fill="none" stroke-width="2"></path></g><g transform="translate(350 522)"><path d="M0 -2L1.6 -1.2L1.9 0.4L0.9 1.8L-0.9 1.8L-1.9 0.4L-1.6 -1.2Z" stroke="#297EA6" fill="none" stroke-width="2"></path></g><g transform="translate(797 353)"><path d="M0 -10L7.8 -6.2L9.7 2.2L4.3 9L-4.3 9L-9.7 2.2L-7.8 -6.2Z" stroke="#297EA6" fill="none" stroke-width="2"></path></g><g transform="translate(760 24)"><path d="M0 -11L8.6 -6.9L10.7 2.4L4.8 9.9L-4.8 9.9L-10.7 2.4L-8.6 -6.9Z" stroke="#297EA6" fill="none" stroke-width="2"></path></g><g transform="translate(569 144)"><path d="M0 -12L9.4 -7.5L11.7 2.7L5.2 10.8L-5.2 10.8L-11.7 2.7L-9.4 -7.5Z" stroke="#297EA6" fill="none" stroke-width="2"></path></g><g transform="translate(85 384)"><path d="M0 -10L7.8 -6.2L9.7 2.2L4.3 9L-4.3 9L-9.7 2.2L-7.8 -6.2Z" stroke="#297EA6" fill="none" stroke-width="2"></path></g><g transform="translate(603 460)"><path d="M0 -1L0.8 -0.6L1 0.2L0.4 0.9L-0.4 0.9L-1 0.2L-0.8 -0.6Z" stroke="#297EA6" fill="none" stroke-width="2"></path></g><g transform="translate(742 434)"><path d="M0 -5L3.9 -3.1L4.9 1.1L2.2 4.5L-2.2 4.5L-4.9 1.1L-3.9 -3.1Z" stroke="#297EA6" fill="none" stroke-width="2"></path></g><g transform="translate(695 425)"><path d="M0 -11L8.6 -6.9L10.7 2.4L4.8 9.9L-4.8 9.9L-10.7 2.4L-8.6 -6.9Z" stroke="#297EA6" fill="none" stroke-width="2"></path></g><g transform="translate(248 404)"><path d="M0 -2L1.6 -1.2L1.9 0.4L0.9 1.8L-0.9 1.8L-1.9 0.4L-1.6 -1.2Z" stroke="#297EA6" fill="none" stroke-width="2"></path></g><g transform="translate(106 438)"><path d="M0 -8L6.3 -5L7.8 1.8L3.5 7.2L-3.5 7.2L-7.8 1.8L-6.3 -5Z" stroke="#297EA6" fill="none" stroke-width="2"></path></g><g transform="translate(711 544)"><path d="M0 -2L1.6 -1.2L1.9 0.4L0.9 1.8L-0.9 1.8L-1.9 0.4L-1.6 -1.2Z" stroke="#297EA6" fill="none" stroke-width="2"></path></g><g transform="translate(753 526)"><path d="M0 -5L3.9 -3.1L4.9 1.1L2.2 4.5L-2.2 4.5L-4.9 1.1L-3.9 -3.1Z" stroke="#297EA6" fill="none" stroke-width="2"></path></g><g transform="translate(422 597)"><path d="M0 -3L2.3 -1.9L2.9 0.7L1.3 2.7L-1.3 2.7L-2.9 0.7L-2.3 -1.9Z" stroke="#297EA6" fill="none" stroke-width="2"></path></g><g transform="translate(778 392)"><path d="M0 -7L5.5 -4.4L6.8 1.6L3 6.3L-3 6.3L-6.8 1.6L-5.5 -4.4Z" stroke="#297EA6" fill="none" stroke-width="2"></path></g><g transform="translate(181 91)"><path d="M0 -9L7 -5.6L8.8 2L3.9 8.1L-3.9 8.1L-8.8 2L-7 -5.6Z" stroke="#297EA6" fill="none" stroke-width="2"></path></g><g transform="translate(402 436)"><path d="M0 -8L6.3 -5L7.8 1.8L3.5 7.2L-3.5 7.2L-7.8 1.8L-6.3 -5Z" stroke="#297EA6" fill="none" stroke-width="2"></path></g><g transform="translate(4 482)"><path d="M0 -6L4.7 -3.7L5.8 1.3L2.6 5.4L-2.6 5.4L-5.8 1.3L-4.7 -3.7Z" stroke="#297EA6" fill="none" stroke-width="2"></path></g><g transform="translate(420 539)"><path d="M0 -11L8.6 -6.9L10.7 2.4L4.8 9.9L-4.8 9.9L-10.7 2.4L-8.6 -6.9Z" stroke="#297EA6" fill="none" stroke-width="2"></path></g><g transform="translate(830 243)"><path d="M0 -8L6.3 -5L7.8 1.8L3.5 7.2L-3.5 7.2L-7.8 1.8L-6.3 -5Z" stroke="#297EA6" fill="none" stroke-width="2"></path></g><g transform="translate(707 173)"><path d="M0 -11L8.6 -6.9L10.7 2.4L4.8 9.9L-4.8 9.9L-10.7 2.4L-8.6 -6.9Z" stroke="#297EA6" fill="none" stroke-width="2"></path></g><g transform="translate(694 479)"><path d="M0 -3L2.3 -1.9L2.9 0.7L1.3 2.7L-1.3 2.7L-2.9 0.7L-2.3 -1.9Z" stroke="#297EA6" fill="none" stroke-width="2"></path></g><g transform="translate(314 475)"><path d="M0 -9L7 -5.6L8.8 2L3.9 8.1L-3.9 8.1L-8.8 2L-7 -5.6Z" stroke="#297EA6" fill="none" stroke-width="2"></path></g><g transform="translate(879 86)"><path d="M0 -6L4.7 -3.7L5.8 1.3L2.6 5.4L-2.6 5.4L-5.8 1.3L-4.7 -3.7Z" stroke="#297EA6" fill="none" stroke-width="2"></path></g><g transform="translate(828 159)"><path d="M0 -12L9.4 -7.5L11.7 2.7L5.2 10.8L-5.2 10.8L-11.7 2.7L-9.4 -7.5Z" stroke="#297EA6" fill="none" stroke-width="2"></path></g><g transform="translate(884 243)"><path d="M0 -10L7.8 -6.2L9.7 2.2L4.3 9L-4.3 9L-9.7 2.2L-7.8 -6.2Z" stroke="#297EA6" fill="none" stroke-width="2"></path></g><g transform="translate(89 353)"><path d="M0 -2L1.6 -1.2L1.9 0.4L0.9 1.8L-0.9 1.8L-1.9 0.4L-1.6 -1.2Z" stroke="#297EA6" fill="none" stroke-width="2"></path></g><g transform="translate(575 214)"><path d="M0 -3L2.3 -1.9L2.9 0.7L1.3 2.7L-1.3 2.7L-2.9 0.7L-2.3 -1.9Z" stroke="#297EA6" fill="none" stroke-width="2"></path></g><g transform="translate(636 400)"><path d="M0 -11L8.6 -6.9L10.7 2.4L4.8 9.9L-4.8 9.9L-10.7 2.4L-8.6 -6.9Z" stroke="#297EA6" fill="none" stroke-width="2"></path></g><g transform="translate(288 298)"><path d="M0 -11L8.6 -6.9L10.7 2.4L4.8 9.9L-4.8 9.9L-10.7 2.4L-8.6 -6.9Z" stroke="#297EA6" fill="none" stroke-width="2"></path></g><g transform="translate(462 363)"><path d="M0 -4L3.1 -2.5L3.9 0.9L1.7 3.6L-1.7 3.6L-3.9 0.9L-3.1 -2.5Z" stroke="#297EA6" fill="none" stroke-width="2"></path></g><g transform="translate(267 122)"><path d="M0 -3L2.3 -1.9L2.9 0.7L1.3 2.7L-1.3 2.7L-2.9 0.7L-2.3 -1.9Z" stroke="#297EA6" fill="none" stroke-width="2"></path></g><g transform="translate(361 82)"><path d="M0 -1L0.8 -0.6L1 0.2L0.4 0.9L-0.4 0.9L-1 0.2L-0.8 -0.6Z" stroke="#297EA6" fill="none" stroke-width="2"></path></g><g transform="translate(778 126)"><path d="M0 -12L9.4 -7.5L11.7 2.7L5.2 10.8L-5.2 10.8L-11.7 2.7L-9.4 -7.5Z" stroke="#297EA6" fill="none" stroke-width="2"></path></g><g transform="translate(28 291)"><path d="M0 -2L1.6 -1.2L1.9 0.4L0.9 1.8L-0.9 1.8L-1.9 0.4L-1.6 -1.2Z" stroke="#297EA6" fill="none" stroke-width="2"></path></g><g transform="translate(3 591)"><path d="M0 -4L3.1 -2.5L3.9 0.9L1.7 3.6L-1.7 3.6L-3.9 0.9L-3.1 -2.5Z" stroke="#297EA6" fill="none" stroke-width="2"></path></g><g transform="translate(662 118)"><path d="M0 -7L5.5 -4.4L6.8 1.6L3 6.3L-3 6.3L-6.8 1.6L-5.5 -4.4Z" stroke="#297EA6" fill="none" stroke-width="2"></path></g><g transform="translate(764 349)"><path d="M0 -11L8.6 -6.9L10.7 2.4L4.8 9.9L-4.8 9.9L-10.7 2.4L-8.6 -6.9Z" stroke="#297EA6" fill="none" stroke-width="2"></path></g><g transform="translate(397 577)"><path d="M0 -10L7.8 -6.2L9.7 2.2L4.3 9L-4.3 9L-9.7 2.2L-7.8 -6.2Z" stroke="#297EA6" fill="none" stroke-width="2"></path></g><g transform="translate(627 301)"><path d="M0 -10L7.8 -6.2L9.7 2.2L4.3 9L-4.3 9L-9.7 2.2L-7.8 -6.2Z" stroke="#297EA6" fill="none" stroke-width="2"></path></g><g transform="translate(384 523)"><path d="M0 -6L4.7 -3.7L5.8 1.3L2.6 5.4L-2.6 5.4L-5.8 1.3L-4.7 -3.7Z" stroke="#297EA6" fill="none" stroke-width="2"></path></g><g transform="translate(890 363)"><path d="M0 -9L7 -5.6L8.8 2L3.9 8.1L-3.9 8.1L-8.8 2L-7 -5.6Z" stroke="#297EA6" fill="none" stroke-width="2"></path></g><g transform="translate(620 588)"><path d="M0 -4L3.1 -2.5L3.9 0.9L1.7 3.6L-1.7 3.6L-3.9 0.9L-3.1 -2.5Z" stroke="#297EA6" fill="none" stroke-width="2"></path></g><g transform="translate(227 548)"><path d="M0 -1L0.8 -0.6L1 0.2L0.4 0.9L-0.4 0.9L-1 0.2L-0.8 -0.6Z" stroke="#297EA6" fill="none" stroke-width="2"></path></g><g transform="translate(164 379)"><path d="M0 -3L2.3 -1.9L2.9 0.7L1.3 2.7L-1.3 2.7L-2.9 0.7L-2.3 -1.9Z" stroke="#297EA6" fill="none" stroke-width="2"></path></g><g transform="translate(404 219)"><path d="M0 -10L7.8 -6.2L9.7 2.2L4.3 9L-4.3 9L-9.7 2.2L-7.8 -6.2Z" stroke="#297EA6" fill="none" stroke-width="2"></path></g><g transform="translate(626 230)"><path d="M0 -5L3.9 -3.1L4.9 1.1L2.2 4.5L-2.2 4.5L-4.9 1.1L-3.9 -3.1Z" stroke="#297EA6" fill="none" stroke-width="2"></path></g><g transform="translate(520 322)"><path d="M0 -4L3.1 -2.5L3.9 0.9L1.7 3.6L-1.7 3.6L-3.9 0.9L-3.1 -2.5Z" stroke="#297EA6" fill="none" stroke-width="2"></path></g><g transform="translate(693 81)"><path d="M0 -11L8.6 -6.9L10.7 2.4L4.8 9.9L-4.8 9.9L-10.7 2.4L-8.6 -6.9Z" stroke="#297EA6" fill="none" stroke-width="2"></path></g><g transform="translate(848 593)"><path d="M0 -2L1.6 -1.2L1.9 0.4L0.9 1.8L-0.9 1.8L-1.9 0.4L-1.6 -1.2Z" stroke="#297EA6" fill="none" stroke-width="2"></path></g><g transform="translate(721 518)"><path d="M0 -10L7.8 -6.2L9.7 2.2L4.3 9L-4.3 9L-9.7 2.2L-7.8 -6.2Z" stroke="#297EA6" fill="none" stroke-width="2"></path></g><g transform="translate(668 49)"><path d="M0 -2L1.6 -1.2L1.9 0.4L0.9 1.8L-0.9 1.8L-1.9 0.4L-1.6 -1.2Z" stroke="#297EA6" fill="none" stroke-width="2"></path></g><g transform="translate(525 127)"><path d="M0 -1L0.8 -0.6L1 0.2L0.4 0.9L-0.4 0.9L-1 0.2L-0.8 -0.6Z" stroke="#297EA6" fill="none" stroke-width="2"></path></g><g transform="translate(785 56)"><path d="M0 -2L1.6 -1.2L1.9 0.4L0.9 1.8L-0.9 1.8L-1.9 0.4L-1.6 -1.2Z" stroke="#297EA6" fill="none" stroke-width="2"></path></g><g transform="translate(215 463)"><path d="M0 -10L7.8 -6.2L9.7 2.2L4.3 9L-4.3 9L-9.7 2.2L-7.8 -6.2Z" stroke="#297EA6" fill="none" stroke-width="2"></path></g><g transform="translate(421 500)"><path d="M0 -10L7.8 -6.2L9.7 2.2L4.3 9L-4.3 9L-9.7 2.2L-7.8 -6.2Z" stroke="#297EA6" fill="none" stroke-width="2"></path></g><g transform="translate(576 436)"><path d="M0 -12L9.4 -7.5L11.7 2.7L5.2 10.8L-5.2 10.8L-11.7 2.7L-9.4 -7.5Z" stroke="#297EA6" fill="none" stroke-width="2"></path></g><g transform="translate(34 335)"><path d="M0 -4L3.1 -2.5L3.9 0.9L1.7 3.6L-1.7 3.6L-3.9 0.9L-3.1 -2.5Z" stroke="#297EA6" fill="none" stroke-width="2"></path></g><g transform="translate(576 77)"><path d="M0 -12L9.4 -7.5L11.7 2.7L5.2 10.8L-5.2 10.8L-11.7 2.7L-9.4 -7.5Z" stroke="#297EA6" fill="none" stroke-width="2"></path></g><g transform="translate(138 4)"><path d="M0 -3L2.3 -1.9L2.9 0.7L1.3 2.7L-1.3 2.7L-2.9 0.7L-2.3 -1.9Z" stroke="#297EA6" fill="none" stroke-width="2"></path></g><g transform="translate(173 458)"><path d="M0 -12L9.4 -7.5L11.7 2.7L5.2 10.8L-5.2 10.8L-11.7 2.7L-9.4 -7.5Z" stroke="#297EA6" fill="none" stroke-width="2"></path></g><g transform="translate(264 491)"><path d="M0 -9L7 -5.6L8.8 2L3.9 8.1L-3.9 8.1L-8.8 2L-7 -5.6Z" stroke="#297EA6" fill="none" stroke-width="2"></path></g><g transform="translate(781 183)"><path d="M0 -5L3.9 -3.1L4.9 1.1L2.2 4.5L-2.2 4.5L-4.9 1.1L-3.9 -3.1Z" stroke="#297EA6" fill="none" stroke-width="2"></path></g><g transform="translate(396 472)"><path d="M0 -12L9.4 -7.5L11.7 2.7L5.2 10.8L-5.2 10.8L-11.7 2.7L-9.4 -7.5Z" stroke="#297EA6" fill="none" stroke-width="2"></path></g><g transform="translate(195 399)"><path d="M0 -5L3.9 -3.1L4.9 1.1L2.2 4.5L-2.2 4.5L-4.9 1.1L-3.9 -3.1Z" stroke="#297EA6" fill="none" stroke-width="2"></path></g><g transform="translate(255 555)"><path d="M0 -4L3.1 -2.5L3.9 0.9L1.7 3.6L-1.7 3.6L-3.9 0.9L-3.1 -2.5Z" stroke="#297EA6" fill="none" stroke-width="2"></path></g><g transform="translate(464 217)"><path d="M0 -5L3.9 -3.1L4.9 1.1L2.2 4.5L-2.2 4.5L-4.9 1.1L-3.9 -3.1Z" stroke="#297EA6" fill="none" stroke-width="2"></path></g><g transform="translate(731 382)"><path d="M0 -7L5.5 -4.4L6.8 1.6L3 6.3L-3 6.3L-6.8 1.6L-5.5 -4.4Z" stroke="#297EA6" fill="none" stroke-width="2"></path></g><g transform="translate(225 385)"><path d="M0 -1L0.8 -0.6L1 0.2L0.4 0.9L-0.4 0.9L-1 0.2L-0.8 -0.6Z" stroke="#297EA6" fill="none" stroke-width="2"></path></g><g transform="translate(166 33)"><path d="M0 -7L5.5 -4.4L6.8 1.6L3 6.3L-3 6.3L-6.8 1.6L-5.5 -4.4Z" stroke="#297EA6" fill="none" stroke-width="2"></path></g><g transform="translate(598 340)"><path d="M0 -11L8.6 -6.9L10.7 2.4L4.8 9.9L-4.8 9.9L-10.7 2.4L-8.6 -6.9Z" stroke="#297EA6" fill="none" stroke-width="2"></path></g><g transform="translate(456 245)"><path d="M0 -4L3.1 -2.5L3.9 0.9L1.7 3.6L-1.7 3.6L-3.9 0.9L-3.1 -2.5Z" stroke="#297EA6" fill="none" stroke-width="2"></path></g><g transform="translate(316 581)"><path d="M0 -12L9.4 -7.5L11.7 2.7L5.2 10.8L-5.2 10.8L-11.7 2.7L-9.4 -7.5Z" stroke="#297EA6" fill="none" stroke-width="2"></path></g><g transform="translate(761 415)"><path d="M0 -12L9.4 -7.5L11.7 2.7L5.2 10.8L-5.2 10.8L-11.7 2.7L-9.4 -7.5Z" stroke="#297EA6" fill="none" stroke-width="2"></path></g><g transform="translate(569 114)"><path d="M0 -2L1.6 -1.2L1.9 0.4L0.9 1.8L-0.9 1.8L-1.9 0.4L-1.6 -1.2Z" stroke="#297EA6" fill="none" stroke-width="2"></path></g><g transform="translate(19 153)"><path d="M0 -2L1.6 -1.2L1.9 0.4L0.9 1.8L-0.9 1.8L-1.9 0.4L-1.6 -1.2Z" stroke="#297EA6" fill="none" stroke-width="2"></path></g><g transform="translate(136 518)"><path d="M0 -12L9.4 -7.5L11.7 2.7L5.2 10.8L-5.2 10.8L-11.7 2.7L-9.4 -7.5Z" stroke="#297EA6" fill="none" stroke-width="2"></path></g><g transform="translate(171 160)"><path d="M0 -3L2.3 -1.9L2.9 0.7L1.3 2.7L-1.3 2.7L-2.9 0.7L-2.3 -1.9Z" stroke="#297EA6" fill="none" stroke-width="2"></path></g><g transform="translate(649 177)"><path d="M0 -5L3.9 -3.1L4.9 1.1L2.2 4.5L-2.2 4.5L-4.9 1.1L-3.9 -3.1Z" stroke="#297EA6" fill="none" stroke-width="2"></path></g><g transform="translate(264 186)"><path d="M0 -1L0.8 -0.6L1 0.2L0.4 0.9L-0.4 0.9L-1 0.2L-0.8 -0.6Z" stroke="#297EA6" fill="none" stroke-width="2"></path></g><g transform="translate(325 501)"><path d="M0 -3L2.3 -1.9L2.9 0.7L1.3 2.7L-1.3 2.7L-2.9 0.7L-2.3 -1.9Z" stroke="#297EA6" fill="none" stroke-width="2"></path></g><g transform="translate(720 2)"><path d="M0 -10L7.8 -6.2L9.7 2.2L4.3 9L-4.3 9L-9.7 2.2L-7.8 -6.2Z" stroke="#297EA6" fill="none" stroke-width="2"></path></g><g transform="translate(83 478)"><path d="M0 -2L1.6 -1.2L1.9 0.4L0.9 1.8L-0.9 1.8L-1.9 0.4L-1.6 -1.2Z" stroke="#297EA6" fill="none" stroke-width="2"></path></g><g transform="translate(890 546)"><path d="M0 -6L4.7 -3.7L5.8 1.3L2.6 5.4L-2.6 5.4L-5.8 1.3L-4.7 -3.7Z" stroke="#297EA6" fill="none" stroke-width="2"></path></g><g transform="translate(479 155)"><path d="M0 -11L8.6 -6.9L10.7 2.4L4.8 9.9L-4.8 9.9L-10.7 2.4L-8.6 -6.9Z" stroke="#297EA6" fill="none" stroke-width="2"></path></g><g transform="translate(847 4)"><path d="M0 -10L7.8 -6.2L9.7 2.2L4.3 9L-4.3 9L-9.7 2.2L-7.8 -6.2Z" stroke="#297EA6" fill="none" stroke-width="2"></path></g><g transform="translate(895 322)"><path d="M0 -11L8.6 -6.9L10.7 2.4L4.8 9.9L-4.8 9.9L-10.7 2.4L-8.6 -6.9Z" stroke="#297EA6" fill="none" stroke-width="2"></path></g><g transform="translate(180 312)"><path d="M0 -4L3.1 -2.5L3.9 0.9L1.7 3.6L-1.7 3.6L-3.9 0.9L-3.1 -2.5Z" stroke="#297EA6" fill="none" stroke-width="2"></path></g><g transform="translate(418 415)"><path d="M0 -11L8.6 -6.9L10.7 2.4L4.8 9.9L-4.8 9.9L-10.7 2.4L-8.6 -6.9Z" stroke="#297EA6" fill="none" stroke-width="2"></path></g><g transform="translate(309 4)"><path d="M0 -2L1.6 -1.2L1.9 0.4L0.9 1.8L-0.9 1.8L-1.9 0.4L-1.6 -1.2Z" stroke="#297EA6" fill="none" stroke-width="2"></path></g><g transform="translate(707 255)"><path d="M0 -2L1.6 -1.2L1.9 0.4L0.9 1.8L-0.9 1.8L-1.9 0.4L-1.6 -1.2Z" stroke="#297EA6" fill="none" stroke-width="2"></path></g><g transform="translate(189 53)"><path d="M0 -1L0.8 -0.6L1 0.2L0.4 0.9L-0.4 0.9L-1 0.2L-0.8 -0.6Z" stroke="#297EA6" fill="none" stroke-width="2"></path></g><g transform="translate(45 35)"><path d="M0 -3L2.3 -1.9L2.9 0.7L1.3 2.7L-1.3 2.7L-2.9 0.7L-2.3 -1.9Z" stroke="#297EA6" fill="none" stroke-width="2"></path></g><g transform="translate(667 499)"><path d="M0 -2L1.6 -1.2L1.9 0.4L0.9 1.8L-0.9 1.8L-1.9 0.4L-1.6 -1.2Z" stroke="#297EA6" fill="none" stroke-width="2"></path></g><g transform="translate(325 125)"><path d="M0 -11L8.6 -6.9L10.7 2.4L4.8 9.9L-4.8 9.9L-10.7 2.4L-8.6 -6.9Z" stroke="#297EA6" fill="none" stroke-width="2"></path></g><g transform="translate(94 134)"><path d="M0 -6L4.7 -3.7L5.8 1.3L2.6 5.4L-2.6 5.4L-5.8 1.3L-4.7 -3.7Z" stroke="#297EA6" fill="none" stroke-width="2"></path></g><g transform="translate(231 70)"><path d="M0 -6L4.7 -3.7L5.8 1.3L2.6 5.4L-2.6 5.4L-5.8 1.3L-4.7 -3.7Z" stroke="#297EA6" fill="none" stroke-width="2"></path></g><g transform="translate(668 468)"><path d="M0 -8L6.3 -5L7.8 1.8L3.5 7.2L-3.5 7.2L-7.8 1.8L-6.3 -5Z" stroke="#297EA6" fill="none" stroke-width="2"></path></g><g transform="translate(420 34)"><path d="M0 -9L7 -5.6L8.8 2L3.9 8.1L-3.9 8.1L-8.8 2L-7 -5.6Z" stroke="#297EA6" fill="none" stroke-width="2"></path></g><g transform="translate(401 117)"><path d="M0 -6L4.7 -3.7L5.8 1.3L2.6 5.4L-2.6 5.4L-5.8 1.3L-4.7 -3.7Z" stroke="#297EA6" fill="none" stroke-width="2"></path></g><g transform="translate(130 422)"><path d="M0 -6L4.7 -3.7L5.8 1.3L2.6 5.4L-2.6 5.4L-5.8 1.3L-4.7 -3.7Z" stroke="#297EA6" fill="none" stroke-width="2"></path></g><g transform="translate(176 201)"><path d="M0 -1L0.8 -0.6L1 0.2L0.4 0.9L-0.4 0.9L-1 0.2L-0.8 -0.6Z" stroke="#297EA6" fill="none" stroke-width="2"></path></g><g transform="translate(300 512)"><path d="M0 -3L2.3 -1.9L2.9 0.7L1.3 2.7L-1.3 2.7L-2.9 0.7L-2.3 -1.9Z" stroke="#297EA6" fill="none" stroke-width="2"></path></g><g transform="translate(375 198)"><path d="M0 -4L3.1 -2.5L3.9 0.9L1.7 3.6L-1.7 3.6L-3.9 0.9L-3.1 -2.5Z" stroke="#297EA6" fill="none" stroke-width="2"></path></g><g transform="translate(500 345)"><path d="M0 -7L5.5 -4.4L6.8 1.6L3 6.3L-3 6.3L-6.8 1.6L-5.5 -4.4Z" stroke="#297EA6" fill="none" stroke-width="2"></path></g><g transform="translate(458 323)"><path d="M0 -10L7.8 -6.2L9.7 2.2L4.3 9L-4.3 9L-9.7 2.2L-7.8 -6.2Z" stroke="#297EA6" fill="none" stroke-width="2"></path></g><g transform="translate(849 319)"><path d="M0 -4L3.1 -2.5L3.9 0.9L1.7 3.6L-1.7 3.6L-3.9 0.9L-3.1 -2.5Z" stroke="#297EA6" fill="none" stroke-width="2"></path></g><g transform="translate(387 352)"><path d="M0 -12L9.4 -7.5L11.7 2.7L5.2 10.8L-5.2 10.8L-11.7 2.7L-9.4 -7.5Z" stroke="#297EA6" fill="none" stroke-width="2"></path></g><g transform="translate(370 55)"><path d="M0 -1L0.8 -0.6L1 0.2L0.4 0.9L-0.4 0.9L-1 0.2L-0.8 -0.6Z" stroke="#297EA6" fill="none" stroke-width="2"></path></g><g transform="translate(458 33)"><path d="M0 -10L7.8 -6.2L9.7 2.2L4.3 9L-4.3 9L-9.7 2.2L-7.8 -6.2Z" stroke="#297EA6" fill="none" stroke-width="2"></path></g><g transform="translate(85 326)"><path d="M0 -6L4.7 -3.7L5.8 1.3L2.6 5.4L-2.6 5.4L-5.8 1.3L-4.7 -3.7Z" stroke="#297EA6" fill="none" stroke-width="2"></path></g><g transform="translate(898 147)"><path d="M0 -2L1.6 -1.2L1.9 0.4L0.9 1.8L-0.9 1.8L-1.9 0.4L-1.6 -1.2Z" stroke="#297EA6" fill="none" stroke-width="2"></path></g><g transform="translate(372 457)"><path d="M0 -12L9.4 -7.5L11.7 2.7L5.2 10.8L-5.2 10.8L-11.7 2.7L-9.4 -7.5Z" stroke="#297EA6" fill="none" stroke-width="2"></path></g><g transform="translate(528 11)"><path d="M0 -11L8.6 -6.9L10.7 2.4L4.8 9.9L-4.8 9.9L-10.7 2.4L-8.6 -6.9Z" stroke="#297EA6" fill="none" stroke-width="2"></path></g><g transform="translate(571 397)"><path d="M0 -12L9.4 -7.5L11.7 2.7L5.2 10.8L-5.2 10.8L-11.7 2.7L-9.4 -7.5Z" stroke="#297EA6" fill="none" stroke-width="2"></path></g><g transform="translate(131 490)"><path d="M0 -6L4.7 -3.7L5.8 1.3L2.6 5.4L-2.6 5.4L-5.8 1.3L-4.7 -3.7Z" stroke="#297EA6" fill="none" stroke-width="2"></path></g><g transform="translate(880 60)"><path d="M0 -10L7.8 -6.2L9.7 2.2L4.3 9L-4.3 9L-9.7 2.2L-7.8 -6.2Z" stroke="#297EA6" fill="none" stroke-width="2"></path></g><g transform="translate(890 481)"><path d="M0 -11L8.6 -6.9L10.7 2.4L4.8 9.9L-4.8 9.9L-10.7 2.4L-8.6 -6.9Z" stroke="#297EA6" fill="none" stroke-width="2"></path></g><g transform="translate(327 540)"><path d="M0 -9L7 -5.6L8.8 2L3.9 8.1L-3.9 8.1L-8.8 2L-7 -5.6Z" stroke="#297EA6" fill="none" stroke-width="2"></path></g><g transform="translate(786 436)"><path d="M0 -4L3.1 -2.5L3.9 0.9L1.7 3.6L-1.7 3.6L-3.9 0.9L-3.1 -2.5Z" stroke="#297EA6" fill="none" stroke-width="2"></path></g><g transform="translate(238 133)"><path d="M0 -5L3.9 -3.1L4.9 1.1L2.2 4.5L-2.2 4.5L-4.9 1.1L-3.9 -3.1Z" stroke="#297EA6" fill="none" stroke-width="2"></path></g><g transform="translate(513 518)"><path d="M0 -11L8.6 -6.9L10.7 2.4L4.8 9.9L-4.8 9.9L-10.7 2.4L-8.6 -6.9Z" stroke="#297EA6" fill="none" stroke-width="2"></path></g><g transform="translate(43 61)"><path d="M0 -11L8.6 -6.9L10.7 2.4L4.8 9.9L-4.8 9.9L-10.7 2.4L-8.6 -6.9Z" stroke="#297EA6" fill="none" stroke-width="2"></path></g><g transform="translate(242 444)"><path d="M0 -10L7.8 -6.2L9.7 2.2L4.3 9L-4.3 9L-9.7 2.2L-7.8 -6.2Z" stroke="#297EA6" fill="none" stroke-width="2"></path></g><g transform="translate(357 401)"><path d="M0 -1L0.8 -0.6L1 0.2L0.4 0.9L-0.4 0.9L-1 0.2L-0.8 -0.6Z" stroke="#297EA6" fill="none" stroke-width="2"></path></g><g transform="translate(666 77)"><path d="M0 -1L0.8 -0.6L1 0.2L0.4 0.9L-0.4 0.9L-1 0.2L-0.8 -0.6Z" stroke="#297EA6" fill="none" stroke-width="2"></path></g><g transform="translate(423 568)"><path d="M0 -11L8.6 -6.9L10.7 2.4L4.8 9.9L-4.8 9.9L-10.7 2.4L-8.6 -6.9Z" stroke="#297EA6" fill="none" stroke-width="2"></path></g><g transform="translate(17 430)"><path d="M0 -3L2.3 -1.9L2.9 0.7L1.3 2.7L-1.3 2.7L-2.9 0.7L-2.3 -1.9Z" stroke="#297EA6" fill="none" stroke-width="2"></path></g><g transform="translate(12 560)"><path d="M0 -6L4.7 -3.7L5.8 1.3L2.6 5.4L-2.6 5.4L-5.8 1.3L-4.7 -3.7Z" stroke="#297EA6" fill="none" stroke-width="2"></path></g><g transform="translate(8 194)"><path d="M0 -11L8.6 -6.9L10.7 2.4L4.8 9.9L-4.8 9.9L-10.7 2.4L-8.6 -6.9Z" stroke="#297EA6" fill="none" stroke-width="2"></path></g><g transform="translate(85 417)"><path d="M0 -12L9.4 -7.5L11.7 2.7L5.2 10.8L-5.2 10.8L-11.7 2.7L-9.4 -7.5Z" stroke="#297EA6" fill="none" stroke-width="2"></path></g><g transform="translate(744 303)"><path d="M0 -9L7 -5.6L8.8 2L3.9 8.1L-3.9 8.1L-8.8 2L-7 -5.6Z" stroke="#297EA6" fill="none" stroke-width="2"></path></g><g transform="translate(802 160)"><path d="M0 -10L7.8 -6.2L9.7 2.2L4.3 9L-4.3 9L-9.7 2.2L-7.8 -6.2Z" stroke="#297EA6" fill="none" stroke-width="2"></path></g><g transform="translate(734 492)"><path d="M0 -3L2.3 -1.9L2.9 0.7L1.3 2.7L-1.3 2.7L-2.9 0.7L-2.3 -1.9Z" stroke="#297EA6" fill="none" stroke-width="2"></path></g><g transform="translate(59 547)"><path d="M0 -3L2.3 -1.9L2.9 0.7L1.3 2.7L-1.3 2.7L-2.9 0.7L-2.3 -1.9Z" stroke="#297EA6" fill="none" stroke-width="2"></path></g><g transform="translate(25 518)"><path d="M0 -1L0.8 -0.6L1 0.2L0.4 0.9L-0.4 0.9L-1 0.2L-0.8 -0.6Z" stroke="#297EA6" fill="none" stroke-width="2"></path></g><g transform="translate(723 577)"><path d="M0 -12L9.4 -7.5L11.7 2.7L5.2 10.8L-5.2 10.8L-11.7 2.7L-9.4 -7.5Z" stroke="#297EA6" fill="none" stroke-width="2"></path></g><g transform="translate(762 239)"><path d="M0 -8L6.3 -5L7.8 1.8L3.5 7.2L-3.5 7.2L-7.8 1.8L-6.3 -5Z" stroke="#297EA6" fill="none" stroke-width="2"></path></g><g transform="translate(319 180)"><path d="M0 -2L1.6 -1.2L1.9 0.4L0.9 1.8L-0.9 1.8L-1.9 0.4L-1.6 -1.2Z" stroke="#297EA6" fill="none" stroke-width="2"></path></g><g transform="translate(194 265)"><path d="M0 -12L9.4 -7.5L11.7 2.7L5.2 10.8L-5.2 10.8L-11.7 2.7L-9.4 -7.5Z" stroke="#297EA6" fill="none" stroke-width="2"></path></g><g transform="translate(279 530)"><path d="M0 -8L6.3 -5L7.8 1.8L3.5 7.2L-3.5 7.2L-7.8 1.8L-6.3 -5Z" stroke="#297EA6" fill="none" stroke-width="2"></path></g><g transform="translate(569 291)"><path d="M0 -6L4.7 -3.7L5.8 1.3L2.6 5.4L-2.6 5.4L-5.8 1.3L-4.7 -3.7Z" stroke="#297EA6" fill="none" stroke-width="2"></path></g><g transform="translate(713 281)"><path d="M0 -6L4.7 -3.7L5.8 1.3L2.6 5.4L-2.6 5.4L-5.8 1.3L-4.7 -3.7Z" stroke="#297EA6" fill="none" stroke-width="2"></path></g><g transform="translate(578 170)"><path d="M0 -10L7.8 -6.2L9.7 2.2L4.3 9L-4.3 9L-9.7 2.2L-7.8 -6.2Z" stroke="#297EA6" fill="none" stroke-width="2"></path></g><g transform="translate(704 53)"><path d="M0 -7L5.5 -4.4L6.8 1.6L3 6.3L-3 6.3L-6.8 1.6L-5.5 -4.4Z" stroke="#297EA6" fill="none" stroke-width="2"></path></g><g transform="translate(387 292)"><path d="M0 -11L8.6 -6.9L10.7 2.4L4.8 9.9L-4.8 9.9L-10.7 2.4L-8.6 -6.9Z" stroke="#297EA6" fill="none" stroke-width="2"></path></g><g transform="translate(622 520)"><path d="M0 -10L7.8 -6.2L9.7 2.2L4.3 9L-4.3 9L-9.7 2.2L-7.8 -6.2Z" stroke="#297EA6" fill="none" stroke-width="2"></path></g><g transform="translate(575 244)"><path d="M0 -3L2.3 -1.9L2.9 0.7L1.3 2.7L-1.3 2.7L-2.9 0.7L-2.3 -1.9Z" stroke="#297EA6" fill="none" stroke-width="2"></path></g><g transform="translate(548 262)"><path d="M0 -2L1.6 -1.2L1.9 0.4L0.9 1.8L-0.9 1.8L-1.9 0.4L-1.6 -1.2Z" stroke="#297EA6" fill="none" stroke-width="2"></path></g><g transform="translate(155 183)"><path d="M0 -10L7.8 -6.2L9.7 2.2L4.3 9L-4.3 9L-9.7 2.2L-7.8 -6.2Z" stroke="#297EA6" fill="none" stroke-width="2"></path></g><g transform="translate(39 580)"><path d="M0 -8L6.3 -5L7.8 1.8L3.5 7.2L-3.5 7.2L-7.8 1.8L-6.3 -5Z" stroke="#297EA6" fill="none" stroke-width="2"></path></g><g transform="translate(210 594)"><path d="M0 -2L1.6 -1.2L1.9 0.4L0.9 1.8L-0.9 1.8L-1.9 0.4L-1.6 -1.2Z" stroke="#297EA6" fill="none" stroke-width="2"></path></g><g transform="translate(362 285)"><path d="M0 -2L1.6 -1.2L1.9 0.4L0.9 1.8L-0.9 1.8L-1.9 0.4L-1.6 -1.2Z" stroke="#297EA6" fill="none" stroke-width="2"></path></g><g transform="translate(685 212)"><path d="M0 -5L3.9 -3.1L4.9 1.1L2.2 4.5L-2.2 4.5L-4.9 1.1L-3.9 -3.1Z" stroke="#297EA6" fill="none" stroke-width="2"></path></g><g transform="translate(800 519)"><path d="M0 -12L9.4 -7.5L11.7 2.7L5.2 10.8L-5.2 10.8L-11.7 2.7L-9.4 -7.5Z" stroke="#297EA6" fill="none" stroke-width="2"></path></g><g transform="translate(857 259)"><path d="M0 -9L7 -5.6L8.8 2L3.9 8.1L-3.9 8.1L-8.8 2L-7 -5.6Z" stroke="#297EA6" fill="none" stroke-width="2"></path></g><g transform="translate(170 597)"><path d="M0 -2L1.6 -1.2L1.9 0.4L0.9 1.8L-0.9 1.8L-1.9 0.4L-1.6 -1.2Z" stroke="#297EA6" fill="none" stroke-width="2"></path></g><g transform="translate(679 536)"><path d="M0 -10L7.8 -6.2L9.7 2.2L4.3 9L-4.3 9L-9.7 2.2L-7.8 -6.2Z" stroke="#297EA6" fill="none" stroke-width="2"></path></g><g transform="translate(434 357)"><path d="M0 -6L4.7 -3.7L5.8 1.3L2.6 5.4L-2.6 5.4L-5.8 1.3L-4.7 -3.7Z" stroke="#297EA6" fill="none" stroke-width="2"></path></g><g transform="translate(480 78)"><path d="M0 -11L8.6 -6.9L10.7 2.4L4.8 9.9L-4.8 9.9L-10.7 2.4L-8.6 -6.9Z" stroke="#297EA6" fill="none" stroke-width="2"></path></g><g transform="translate(627 195)"><path d="M0 -8L6.3 -5L7.8 1.8L3.5 7.2L-3.5 7.2L-7.8 1.8L-6.3 -5Z" stroke="#297EA6" fill="none" stroke-width="2"></path></g><g transform="translate(867 146)"><path d="M0 -2L1.6 -1.2L1.9 0.4L0.9 1.8L-0.9 1.8L-1.9 0.4L-1.6 -1.2Z" stroke="#297EA6" fill="none" stroke-width="2"></path></g><g transform="translate(666 398)"><path d="M0 -9L7 -5.6L8.8 2L3.9 8.1L-3.9 8.1L-8.8 2L-7 -5.6Z" stroke="#297EA6" fill="none" stroke-width="2"></path></g><g transform="translate(274 6)"><path d="M0 -1L0.8 -0.6L1 0.2L0.4 0.9L-0.4 0.9L-1 0.2L-0.8 -0.6Z" stroke="#297EA6" fill="none" stroke-width="2"></path></g><g transform="translate(574 490)"><path d="M0 -3L2.3 -1.9L2.9 0.7L1.3 2.7L-1.3 2.7L-2.9 0.7L-2.3 -1.9Z" stroke="#297EA6" fill="none" stroke-width="2"></path></g><g transform="translate(658 578)"><path d="M0 -9L7 -5.6L8.8 2L3.9 8.1L-3.9 8.1L-8.8 2L-7 -5.6Z" stroke="#297EA6" fill="none" stroke-width="2"></path></g><g transform="translate(231 577)"><path d="M0 -8L6.3 -5L7.8 1.8L3.5 7.2L-3.5 7.2L-7.8 1.8L-6.3 -5Z" stroke="#297EA6" fill="none" stroke-width="2"></path></g><g transform="translate(97 303)"><path d="M0 -6L4.7 -3.7L5.8 1.3L2.6 5.4L-2.6 5.4L-5.8 1.3L-4.7 -3.7Z" stroke="#297EA6" fill="none" stroke-width="2"></path></g><g transform="translate(265 340)"><path d="M0 -8L6.3 -5L7.8 1.8L3.5 7.2L-3.5 7.2L-7.8 1.8L-6.3 -5Z" stroke="#297EA6" fill="none" stroke-width="2"></path></g><g transform="translate(436 221)"><path d="M0 -11L8.6 -6.9L10.7 2.4L4.8 9.9L-4.8 9.9L-10.7 2.4L-8.6 -6.9Z" stroke="#297EA6" fill="none" stroke-width="2"></path></g><g transform="translate(819 34)"><path d="M0 -7L5.5 -4.4L6.8 1.6L3 6.3L-3 6.3L-6.8 1.6L-5.5 -4.4Z" stroke="#297EA6" fill="none" stroke-width="2"></path></g><g transform="translate(711 113)"><path d="M0 -12L9.4 -7.5L11.7 2.7L5.2 10.8L-5.2 10.8L-11.7 2.7L-9.4 -7.5Z" stroke="#297EA6" fill="none" stroke-width="2"></path></g><g transform="translate(406 332)"><path d="M0 -11L8.6 -6.9L10.7 2.4L4.8 9.9L-4.8 9.9L-10.7 2.4L-8.6 -6.9Z" stroke="#297EA6" fill="none" stroke-width="2"></path></g><g transform="translate(394 548)"><path d="M0 -11L8.6 -6.9L10.7 2.4L4.8 9.9L-4.8 9.9L-10.7 2.4L-8.6 -6.9Z" stroke="#297EA6" fill="none" stroke-width="2"></path></g><g transform="translate(167 543)"><path d="M0 -4L3.1 -2.5L3.9 0.9L1.7 3.6L-1.7 3.6L-3.9 0.9L-3.1 -2.5Z" stroke="#297EA6" fill="none" stroke-width="2"></path></g><g transform="translate(531 100)"><path d="M0 -10L7.8 -6.2L9.7 2.2L4.3 9L-4.3 9L-9.7 2.2L-7.8 -6.2Z" stroke="#297EA6" fill="none" stroke-width="2"></path></g><g transform="translate(873 6)"><path d="M0 -9L7 -5.6L8.8 2L3.9 8.1L-3.9 8.1L-8.8 2L-7 -5.6Z" stroke="#297EA6" fill="none" stroke-width="2"></path></g><g transform="translate(307 404)"><path d="M0 -1L0.8 -0.6L1 0.2L0.4 0.9L-0.4 0.9L-1 0.2L-0.8 -0.6Z" stroke="#297EA6" fill="none" stroke-width="2"></path></g><g transform="translate(548 432)"><path d="M0 -10L7.8 -6.2L9.7 2.2L4.3 9L-4.3 9L-9.7 2.2L-7.8 -6.2Z" stroke="#297EA6" fill="none" stroke-width="2"></path></g><g transform="translate(857 217)"><path d="M0 -6L4.7 -3.7L5.8 1.3L2.6 5.4L-2.6 5.4L-5.8 1.3L-4.7 -3.7Z" stroke="#297EA6" fill="none" stroke-width="2"></path></g><g transform="translate(884 453)"><path d="M0 -3L2.3 -1.9L2.9 0.7L1.3 2.7L-1.3 2.7L-2.9 0.7L-2.3 -1.9Z" stroke="#297EA6" fill="none" stroke-width="2"></path></g><g transform="translate(851 515)"><path d="M0 -3L2.3 -1.9L2.9 0.7L1.3 2.7L-1.3 2.7L-2.9 0.7L-2.3 -1.9Z" stroke="#297EA6" fill="none" stroke-width="2"></path></g><g transform="translate(444 56)"><path d="M0 -10L7.8 -6.2L9.7 2.2L4.3 9L-4.3 9L-9.7 2.2L-7.8 -6.2Z" stroke="#297EA6" fill="none" stroke-width="2"></path></g><g transform="translate(369 487)"><path d="M0 -9L7 -5.6L8.8 2L3.9 8.1L-3.9 8.1L-8.8 2L-7 -5.6Z" stroke="#297EA6" fill="none" stroke-width="2"></path></g><g transform="translate(73 270)"><path d="M0 -4L3.1 -2.5L3.9 0.9L1.7 3.6L-1.7 3.6L-3.9 0.9L-3.1 -2.5Z" stroke="#297EA6" fill="none" stroke-width="2"></path></g><g transform="translate(84 46)"><path d="M0 -2L1.6 -1.2L1.9 0.4L0.9 1.8L-0.9 1.8L-1.9 0.4L-1.6 -1.2Z" stroke="#297EA6" fill="none" stroke-width="2"></path></g><g transform="translate(11 75)"><path d="M0 -2L1.6 -1.2L1.9 0.4L0.9 1.8L-0.9 1.8L-1.9 0.4L-1.6 -1.2Z" stroke="#297EA6" fill="none" stroke-width="2"></path></g><g transform="translate(30 463)"><path d="M0 -4L3.1 -2.5L3.9 0.9L1.7 3.6L-1.7 3.6L-3.9 0.9L-3.1 -2.5Z" stroke="#297EA6" fill="none" stroke-width="2"></path></g><g transform="translate(693 315)"><path d="M0 -1L0.8 -0.6L1 0.2L0.4 0.9L-0.4 0.9L-1 0.2L-0.8 -0.6Z" stroke="#297EA6" fill="none" stroke-width="2"></path></g><g transform="translate(579 557)"><path d="M0 -10L7.8 -6.2L9.7 2.2L4.3 9L-4.3 9L-9.7 2.2L-7.8 -6.2Z" stroke="#297EA6" fill="none" stroke-width="2"></path></g><g transform="translate(36 377)"><path d="M0 -6L4.7 -3.7L5.8 1.3L2.6 5.4L-2.6 5.4L-5.8 1.3L-4.7 -3.7Z" stroke="#297EA6" fill="none" stroke-width="2"></path></g><g transform="translate(336 50)"><path d="M0 -6L4.7 -3.7L5.8 1.3L2.6 5.4L-2.6 5.4L-5.8 1.3L-4.7 -3.7Z" stroke="#297EA6" fill="none" stroke-width="2"></path></g><g transform="translate(633 152)"><path d="M0 -8L6.3 -5L7.8 1.8L3.5 7.2L-3.5 7.2L-7.8 1.8L-6.3 -5Z" stroke="#297EA6" fill="none" stroke-width="2"></path></g><g transform="translate(563 599)"><path d="M0 -10L7.8 -6.2L9.7 2.2L4.3 9L-4.3 9L-9.7 2.2L-7.8 -6.2Z" stroke="#297EA6" fill="none" stroke-width="2"></path></g><g transform="translate(499 543)"><path d="M0 -9L7 -5.6L8.8 2L3.9 8.1L-3.9 8.1L-8.8 2L-7 -5.6Z" stroke="#297EA6" fill="none" stroke-width="2"></path></g><g transform="translate(456 595)"><path d="M0 -2L1.6 -1.2L1.9 0.4L0.9 1.8L-0.9 1.8L-1.9 0.4L-1.6 -1.2Z" stroke="#297EA6" fill="none" stroke-width="2"></path></g><g transform="translate(646 93)"><path d="M0 -10L7.8 -6.2L9.7 2.2L4.3 9L-4.3 9L-9.7 2.2L-7.8 -6.2Z" stroke="#297EA6" fill="none" stroke-width="2"></path></g><g transform="translate(125 177)"><path d="M0 -9L7 -5.6L8.8 2L3.9 8.1L-3.9 8.1L-8.8 2L-7 -5.6Z" stroke="#297EA6" fill="none" stroke-width="2"></path></g><g transform="translate(828 530)"><path d="M0 -4L3.1 -2.5L3.9 0.9L1.7 3.6L-1.7 3.6L-3.9 0.9L-3.1 -2.5Z" stroke="#297EA6" fill="none" stroke-width="2"></path></g><g transform="translate(135 565)"><path d="M0 -2L1.6 -1.2L1.9 0.4L0.9 1.8L-0.9 1.8L-1.9 0.4L-1.6 -1.2Z" stroke="#297EA6" fill="none" stroke-width="2"></path></g><g transform="translate(204 74)"><path d="M0 -4L3.1 -2.5L3.9 0.9L1.7 3.6L-1.7 3.6L-3.9 0.9L-3.1 -2.5Z" stroke="#297EA6" fill="none" stroke-width="2"></path></g><g transform="translate(477 389)"><path d="M0 -6L4.7 -3.7L5.8 1.3L2.6 5.4L-2.6 5.4L-5.8 1.3L-4.7 -3.7Z" stroke="#297EA6" fill="none" stroke-width="2"></path></g><g transform="translate(436 266)"><path d="M0 -8L6.3 -5L7.8 1.8L3.5 7.2L-3.5 7.2L-7.8 1.8L-6.3 -5Z" stroke="#297EA6" fill="none" stroke-width="2"></path></g><g transform="translate(840 430)"><path d="M0 -6L4.7 -3.7L5.8 1.3L2.6 5.4L-2.6 5.4L-5.8 1.3L-4.7 -3.7Z" stroke="#297EA6" fill="none" stroke-width="2"></path></g><g transform="translate(64 435)"><path d="M0 -9L7 -5.6L8.8 2L3.9 8.1L-3.9 8.1L-8.8 2L-7 -5.6Z" stroke="#297EA6" fill="none" stroke-width="2"></path></g><g transform="translate(221 270)"><path d="M0 -9L7 -5.6L8.8 2L3.9 8.1L-3.9 8.1L-8.8 2L-7 -5.6Z" stroke="#297EA6" fill="none" stroke-width="2"></path></g><g transform="translate(279 66)"><path d="M0 -6L4.7 -3.7L5.8 1.3L2.6 5.4L-2.6 5.4L-5.8 1.3L-4.7 -3.7Z" stroke="#297EA6" fill="none" stroke-width="2"></path></g><g transform="translate(167 6)"><path d="M0 -5L3.9 -3.1L4.9 1.1L2.2 4.5L-2.2 4.5L-4.9 1.1L-3.9 -3.1Z" stroke="#297EA6" fill="none" stroke-width="2"></path></g><g transform="translate(298 551)"><path d="M0 -7L5.5 -4.4L6.8 1.6L3 6.3L-3 6.3L-6.8 1.6L-5.5 -4.4Z" stroke="#297EA6" fill="none" stroke-width="2"></path></g><g transform="translate(213 42)"><path d="M0 -1L0.8 -0.6L1 0.2L0.4 0.9L-0.4 0.9L-1 0.2L-0.8 -0.6Z" stroke="#297EA6" fill="none" stroke-width="2"></path></g><g transform="translate(664 300)"><path d="M0 -6L4.7 -3.7L5.8 1.3L2.6 5.4L-2.6 5.4L-5.8 1.3L-4.7 -3.7Z" stroke="#297EA6" fill="none" stroke-width="2"></path></g><g transform="translate(806 107)"><path d="M0 -3L2.3 -1.9L2.9 0.7L1.3 2.7L-1.3 2.7L-2.9 0.7L-2.3 -1.9Z" stroke="#297EA6" fill="none" stroke-width="2"></path></g><g transform="translate(515 79)"><path d="M0 -10L7.8 -6.2L9.7 2.2L4.3 9L-4.3 9L-9.7 2.2L-7.8 -6.2Z" stroke="#297EA6" fill="none" stroke-width="2"></path></g><g transform="translate(310 239)"><path d="M0 -9L7 -5.6L8.8 2L3.9 8.1L-3.9 8.1L-8.8 2L-7 -5.6Z" stroke="#297EA6" fill="none" stroke-width="2"></path></g><g transform="translate(855 106)"><path d="M0 -9L7 -5.6L8.8 2L3.9 8.1L-3.9 8.1L-8.8 2L-7 -5.6Z" stroke="#297EA6" fill="none" stroke-width="2"></path></g><g transform="translate(897 585)"><path d="M0 -7L5.5 -4.4L6.8 1.6L3 6.3L-3 6.3L-6.8 1.6L-5.5 -4.4Z" stroke="#297EA6" fill="none" stroke-width="2"></path></g><g transform="translate(637 332)"><path d="M0 -5L3.9 -3.1L4.9 1.1L2.2 4.5L-2.2 4.5L-4.9 1.1L-3.9 -3.1Z" stroke="#297EA6" fill="none" stroke-width="2"></path></g><g transform="translate(542 382)"><path d="M0 -4L3.1 -2.5L3.9 0.9L1.7 3.6L-1.7 3.6L-3.9 0.9L-3.1 -2.5Z" stroke="#297EA6" fill="none" stroke-width="2"></path></g><g transform="translate(541 532)"><path d="M0 -1L0.8 -0.6L1 0.2L0.4 0.9L-0.4 0.9L-1 0.2L-0.8 -0.6Z" stroke="#297EA6" fill="none" stroke-width="2"></path></g><g transform="translate(796 462)"><path d="M0 -4L3.1 -2.5L3.9 0.9L1.7 3.6L-1.7 3.6L-3.9 0.9L-3.1 -2.5Z" stroke="#297EA6" fill="none" stroke-width="2"></path></g><g transform="translate(772 589)"><path d="M0 -9L7 -5.6L8.8 2L3.9 8.1L-3.9 8.1L-8.8 2L-7 -5.6Z" stroke="#297EA6" fill="none" stroke-width="2"></path></g><g transform="translate(210 345)"><path d="M0 -11L8.6 -6.9L10.7 2.4L4.8 9.9L-4.8 9.9L-10.7 2.4L-8.6 -6.9Z" stroke="#297EA6" fill="none" stroke-width="2"></path></g><g transform="translate(456 136)"><path d="M0 -10L7.8 -6.2L9.7 2.2L4.3 9L-4.3 9L-9.7 2.2L-7.8 -6.2Z" stroke="#297EA6" fill="none" stroke-width="2"></path></g><g transform="translate(569 527)"><path d="M0 -2L1.6 -1.2L1.9 0.4L0.9 1.8L-0.9 1.8L-1.9 0.4L-1.6 -1.2Z" stroke="#297EA6" fill="none" stroke-width="2"></path></g><g transform="translate(343 196)"><path d="M0 -7L5.5 -4.4L6.8 1.6L3 6.3L-3 6.3L-6.8 1.6L-5.5 -4.4Z" stroke="#297EA6" fill="none" stroke-width="2"></path></g><g transform="translate(822 595)"><path d="M0 -11L8.6 -6.9L10.7 2.4L4.8 9.9L-4.8 9.9L-10.7 2.4L-8.6 -6.9Z" stroke="#297EA6" fill="none" stroke-width="2"></path></g><g transform="translate(550 231)"><path d="M0 -2L1.6 -1.2L1.9 0.4L0.9 1.8L-0.9 1.8L-1.9 0.4L-1.6 -1.2Z" stroke="#297EA6" fill="none" stroke-width="2"></path></g><g transform="translate(307 318)"><path d="M0 -10L7.8 -6.2L9.7 2.2L4.3 9L-4.3 9L-9.7 2.2L-7.8 -6.2Z" stroke="#297EA6" fill="none" stroke-width="2"></path></g><g transform="translate(820 332)"><path d="M0 -6L4.7 -3.7L5.8 1.3L2.6 5.4L-2.6 5.4L-5.8 1.3L-4.7 -3.7Z" stroke="#297EA6" fill="none" stroke-width="2"></path></g><g transform="translate(888 392)"><path d="M0 -7L5.5 -4.4L6.8 1.6L3 6.3L-3 6.3L-6.8 1.6L-5.5 -4.4Z" stroke="#297EA6" fill="none" stroke-width="2"></path></g><g transform="translate(378 225)"><path d="M0 -9L7 -5.6L8.8 2L3.9 8.1L-3.9 8.1L-8.8 2L-7 -5.6Z" stroke="#297EA6" fill="none" stroke-width="2"></path></g><g transform="translate(201 149)"><path d="M0 -11L8.6 -6.9L10.7 2.4L4.8 9.9L-4.8 9.9L-10.7 2.4L-8.6 -6.9Z" stroke="#297EA6" fill="none" stroke-width="2"></path></g><g transform="translate(369 372)"><path d="M0 -8L6.3 -5L7.8 1.8L3.5 7.2L-3.5 7.2L-7.8 1.8L-6.3 -5Z" stroke="#297EA6" fill="none" stroke-width="2"></path></g><g transform="translate(453 513)"><path d="M0 -7L5.5 -4.4L6.8 1.6L3 6.3L-3 6.3L-6.8 1.6L-5.5 -4.4Z" stroke="#297EA6" fill="none" stroke-width="2"></path></g><g transform="translate(697 137)"><path d="M0 -2L1.6 -1.2L1.9 0.4L0.9 1.8L-0.9 1.8L-1.9 0.4L-1.6 -1.2Z" stroke="#297EA6" fill="none" stroke-width="2"></path></g><g transform="translate(293 113)"><path d="M0 -5L3.9 -3.1L4.9 1.1L2.2 4.5L-2.2 4.5L-4.9 1.1L-3.9 -3.1Z" stroke="#297EA6" fill="none" stroke-width="2"></path></g></g></svg>